<svg width="75" height="65" viewBox="0 0 75 65" fill="none" xmlns="http://www.w3.org/2000/svg">
    <mask id="path-1-outside-1" maskUnits="userSpaceOnUse" x="15.9424" y="0" width="44" height="43" fill="black">
        <rect fill="white" x="15.9424" width="44" height="43"/>
        <path fill-rule="evenodd" clip-rule="evenodd" d="M57.9798 21.4401C57.9798 32.7288 48.7933 41.8801 37.4611 41.8801C26.1289 41.8801 16.9424 32.7288 16.9424 21.4401C16.9424 10.1513 26.1289 1 37.4611 1C48.7933 1 57.9798 10.1513 57.9798 21.4401ZM57.4275 21.4404C57.4275 32.4251 48.4884 41.3299 37.4615 41.3299C26.4345 41.3299 17.4954 32.4251 17.4954 21.4404C17.4954 10.4558 26.4345 1.55095 37.4615 1.55095C48.4884 1.55095 57.4275 10.4558 57.4275 21.4404Z"/>
    </mask>
    <path fill-rule="evenodd" clip-rule="evenodd" d="M57.9798 21.4401C57.9798 32.7288 48.7933 41.8801 37.4611 41.8801C26.1289 41.8801 16.9424 32.7288 16.9424 21.4401C16.9424 10.1513 26.1289 1 37.4611 1C48.7933 1 57.9798 10.1513 57.9798 21.4401ZM57.4275 21.4404C57.4275 32.4251 48.4884 41.3299 37.4615 41.3299C26.4345 41.3299 17.4954 32.4251 17.4954 21.4404C17.4954 10.4558 26.4345 1.55095 37.4615 1.55095C48.4884 1.55095 57.4275 10.4558 57.4275 21.4404Z" fill="#3C2482"/>
    <path d="M37.4611 42.8801C49.3419 42.8801 58.9798 33.2847 58.9798 21.4401H56.9798C56.9798 32.1729 48.2446 40.8801 37.4611 40.8801V42.8801ZM15.9424 21.4401C15.9424 33.2847 25.5803 42.8801 37.4611 42.8801V40.8801C26.6776 40.8801 17.9424 32.1729 17.9424 21.4401H15.9424ZM37.4611 0C25.5803 0 15.9424 9.59543 15.9424 21.4401H17.9424C17.9424 10.7072 26.6776 2 37.4611 2V0ZM58.9798 21.4401C58.9798 9.59543 49.3419 0 37.4611 0V2C48.2446 2 56.9798 10.7072 56.9798 21.4401H58.9798ZM37.4615 42.3299C49.0371 42.3299 58.4275 32.981 58.4275 21.4404H56.4275C56.4275 31.8692 47.9397 40.3299 37.4615 40.3299V42.3299ZM16.4954 21.4404C16.4954 32.981 25.8859 42.3299 37.4615 42.3299V40.3299C26.9832 40.3299 18.4954 31.8692 18.4954 21.4404H16.4954ZM37.4615 0.550947C25.8859 0.550947 16.4954 9.89987 16.4954 21.4404H18.4954C18.4954 11.0117 26.9832 2.55095 37.4615 2.55095V0.550947ZM58.4275 21.4404C58.4275 9.89987 49.0371 0.550947 37.4615 0.550947V2.55095C47.9397 2.55095 56.4275 11.0117 56.4275 21.4404H58.4275Z" fill="#3C2482" mask="url(#path-1-outside-1)"/>
    <path fill-rule="evenodd" clip-rule="evenodd" d="M53.5877 36.828C54.2715 36.6814 56.095 34.2878 56.7788 33.9945C57.5623 34.3682 61.9406 39.4581 62.8143 39.8792C63.2845 39.6332 63.8875 38.9567 64.3102 38.5404C64.7328 38.1242 65.4973 37.5092 65.6398 37.0835C64.6948 35.7826 60.7249 32.3104 59.8464 31.0663C60.0934 30.3236 62.7099 28.5213 62.9093 27.7124C61.3992 27.4664 52.5477 25.508 51.5933 25.4844L53.5877 36.828Z" fill="#CF0858"/>
    <path fill-rule="evenodd" clip-rule="evenodd" d="M53.384 38.7205C53.2273 38.4225 50.9717 25.6691 50.9385 24.7751C51.912 24.8271 53.4553 25.163 54.4667 25.3569C56.3947 25.7259 64.3487 26.9038 64.928 27.2255C64.6384 28.0154 62.0313 29.9833 61.4378 30.9294C61.6515 31.4214 63.9356 33.5454 64.4674 34.0657L67.1599 36.7431C67.2644 36.8567 67.2501 36.8377 67.3451 36.9655C67.4923 37.1642 67.3783 36.9844 67.5208 37.254C66.704 37.9778 64.1303 40.7924 63.5129 41.1046L58.9115 36.535C58.4746 36.0903 57.8858 35.518 57.3587 35.0402C56.5846 35.3193 54.1153 38.4839 53.384 38.7205ZM51.741 25.5793C51.7363 26.5727 53.5265 35.8018 53.7449 37.3723C54.5997 37.1594 56.5704 34.4158 57.3634 34.1556C58.6455 35.0638 62.1833 39.1841 63.5177 40.1633C63.9688 40.0072 64.6384 39.2124 65.0895 38.7678C65.5406 38.3231 66.2671 37.6892 66.5426 37.1973C66.1247 36.289 60.9059 31.7525 60.5355 30.9389C60.8632 30.2198 63.4369 28.304 63.6079 27.5897L51.741 25.5793Z" fill="#3C2482"/>
    <path fill-rule="evenodd" clip-rule="evenodd" d="M36.6592 24.5391C37.5567 23.8484 38.4542 23.0774 39.3184 22.3489C40.4106 21.4217 44.0528 18.4368 44.5942 17.8739C45.6009 16.8284 45.3065 15.0924 45.3065 13.6732L37.7324 19.908C37.2338 20.2769 36.7447 20.7878 36.2461 21.1804C34.7312 22.3725 35.396 23.5741 36.6592 24.5391ZM30.5809 27.7132L30.4764 27.5382C30.315 28.8627 30.315 30.9346 31.1507 31.9139C31.7538 32.6187 34.3703 34.7427 35.2583 35.4901C35.8567 35.9962 36.1796 36.3463 37.0913 36.2375C37.8653 36.1476 39.9263 34.175 40.0117 34C40.4391 33.8959 42.2769 32.1598 42.595 31.7294C43.4213 30.6082 43.1459 28.8722 43.1459 27.4578C42.5428 27.6186 37.8843 32.1646 36.9394 32.3916C35.9706 32.6234 34.4653 30.8258 33.6865 30.2487C33.1262 29.8325 30.975 27.8031 30.5809 27.7132ZM43.1459 21.5116L36.6165 27.032C35.0826 25.4142 32.0008 24.1323 33.3731 21.4217C33.772 20.6317 38.3165 16.9514 39.6224 15.8492C40.9187 14.7518 45.3635 11.2323 45.9428 10.2578C46.7881 8.82923 46.6029 7.91152 46.6029 6.18018L38.098 13.3799C37.5139 13.8104 36.5025 14.6524 35.9944 15.1586C34.1044 17.0366 31.0273 18.5314 30.1678 21.2372C29.5077 23.3139 30.3245 25.3953 31.9723 26.786C36.8254 30.8684 36.1701 31.3273 38.8056 29.0661C39.4704 28.4937 40.3631 27.8551 40.9662 27.2544C41.7972 26.4313 42.2341 26.2562 42.747 25.0642C43.2693 23.839 43.1459 22.9023 43.1459 21.5116Z" fill="#FFCF59"/>
    <path d="M38.2314 55.2175C38.2694 53.9213 37.7756 52.8665 36.3272 52.8665C34.9501 52.8665 34.3708 53.9876 34.3185 55.2175H38.2314ZM40.7625 55.9554C40.7625 56.49 40.544 56.8873 39.96 56.8873L34.3233 56.8873C34.3233 58.5714 35.1353 59.4513 36.8543 59.4513C37.5666 59.4513 38.2742 59.3519 38.9532 59.1343C39.2049 59.0539 39.4139 58.9829 39.5801 58.9167C39.7937 58.8316 40.1262 58.7133 40.2449 58.9829C40.3493 59.2384 40.3256 60.0426 40.2734 60.3311C40.2116 60.6622 40.0312 60.7474 39.7368 60.8704C39.1812 61.1022 38.4926 61.2394 37.9038 61.3292C37.5049 61.3907 37.0728 61.4191 36.6169 61.4191C33.1979 61.4191 31.6688 59.6689 31.6688 56.3244C31.6688 55.5061 31.7733 54.7681 31.9917 54.1106C32.6518 52.0717 34.2711 51.0263 36.3937 51.0263C37.1677 51.0263 37.8326 51.1398 38.3786 51.3669C40.1546 52.0907 40.7625 53.7463 40.7625 55.5439V55.9554ZM28.4445 61.7928C28.4445 61.036 27.6704 60.8325 27.0436 60.8136L25.1821 60.7616C24.8592 61.0028 24.4508 61.3907 24.3654 61.8023C24.2656 62.2895 24.3844 62.6632 24.8592 62.9045C25.2106 63.0842 25.7045 63.1741 26.3361 63.1741C26.7349 63.1741 27.0673 63.1363 27.3333 63.0559C27.9696 62.8761 28.4445 62.4929 28.4445 61.7928ZM27.8319 54.437C27.8319 53.4341 27.2478 52.8665 26.2458 52.8665C25.2724 52.8665 24.712 53.5382 24.712 54.4795C24.712 55.4446 25.3198 55.998 26.2791 55.998C26.9629 55.998 27.5042 55.6858 27.7369 55.033C27.7986 54.8438 27.8319 54.6451 27.8319 54.437ZM31.1844 52.2515C31.1844 52.5826 31.1464 52.8286 31.0657 52.9847C30.9897 53.1456 30.8995 53.226 30.7855 53.226H29.6981C30.0068 53.5618 30.1255 53.997 30.1255 54.4417C30.1255 56.7454 28.435 57.7956 26.2838 57.7956C25.8327 57.7956 25.1916 57.6868 24.8117 57.4361C24.4888 57.7719 24.3084 58.3443 24.7548 58.666C24.9305 58.7937 25.1774 58.8647 25.4955 58.8789L27.7464 58.9593C28.9573 59.0066 30.2822 59.3566 30.833 60.5487C31.1702 61.2914 31.1132 62.2186 30.7571 62.9423C30.2822 63.8979 29.3325 64.4135 28.34 64.6973C27.7322 64.8724 27.0294 64.9528 26.2173 64.9528C24.5601 64.9528 21.8058 64.65 21.8058 62.4504C21.8058 61.4664 22.3804 60.7285 23.145 60.1656C22.5561 59.8533 22.2095 59.2904 22.2095 58.6234C22.2095 57.8003 22.6274 57.1475 23.2209 56.6035C22.6274 56.0217 22.4184 55.2885 22.4184 54.4795C22.4184 52.2231 24.1422 51.0594 26.2696 51.0594C26.7967 51.0594 27.338 51.1162 27.8461 51.2486H30.7808C31.1749 51.2581 31.1844 52.0055 31.1844 52.2515ZM21.9768 52.4691C21.9768 52.7671 21.9768 53.1645 21.8961 53.4483C21.7726 53.8267 21.4687 53.6612 21.1933 53.5713C20.8419 53.453 20.4857 53.401 20.1296 53.5476C19.498 53.8078 18.9946 54.5316 18.6432 55.0803V60.8373C18.6432 61.1495 18.2016 61.2015 17.9689 61.2252C17.6413 61.2583 16.3116 61.3151 16.0932 61.017C16.0505 60.965 16.0315 60.9035 16.0315 60.8373V51.6082C16.0315 51.4426 16.1217 51.3574 16.2689 51.2959C16.663 51.1588 17.6555 51.1446 18.0401 51.2959C18.1779 51.3574 18.2633 51.4521 18.2633 51.6082V52.7577C18.6907 52.1474 19.384 51.2959 20.1438 51.102C20.6139 50.9695 21.1648 51.0121 21.6301 51.173C21.8486 51.2534 21.9008 51.3338 21.9435 51.5561C21.9578 51.6271 21.9673 51.7359 21.9768 51.8825C21.972 52.0292 21.9768 52.2231 21.9768 52.4691ZM13.8993 60.8373C13.8993 61.1495 13.4577 61.2015 13.225 61.2252C12.8974 61.2583 11.5677 61.3151 11.3493 61.017C11.3066 60.965 11.2876 60.9035 11.2876 60.8373L11.2876 51.6271C11.2876 51.3149 11.7292 51.2534 11.9619 51.225C12.3038 51.1824 13.6049 51.1304 13.8376 51.4473C13.8803 51.4994 13.8993 51.5609 13.8993 51.6271L13.8993 60.8373ZM6.88555 57.2705C6.88555 56.7123 6.7146 56.1825 6.27298 55.8183C5.74113 55.3736 4.9576 55.2979 4.29279 55.2979H2.67824L2.67824 59.1107H4.64894C5.24252 59.1107 5.80761 59.0208 6.28247 58.6376C6.70036 58.2923 6.88555 57.8098 6.88555 57.2705ZM6.18275 51.5325C6.18275 51.0689 6.05454 50.5864 5.68889 50.2742C5.24252 49.8957 4.61569 49.8342 4.0506 49.8342H2.67824L2.67824 53.3064H4.19781C4.59195 53.3064 4.90536 53.2591 5.13805 53.1645C5.8456 52.8948 6.18275 52.2704 6.18275 51.5325ZM9.711 57.1712C9.711 59.5269 8.02523 60.771 5.84085 61.088C5.40397 61.1542 4.91486 61.1873 4.37351 61.1873H0.807272C0.579336 61.1873 0.38939 61.1211 0.232684 60.9839C0.0759785 60.8515 0 60.6339 0 60.3311L0 48.6658C0 48.3631 0.0759785 48.1455 0.232684 48.0083C0.38939 47.8758 0.579336 47.8049 0.807272 47.8049H4.17407C5.79336 47.8049 7.81154 48.065 8.59507 49.6971C8.93697 50.3972 8.99871 51.3669 8.78502 52.119C8.53334 52.9942 7.89702 53.6423 7.04701 53.9545C8.69004 54.2619 9.711 55.5013 9.711 57.1712Z" fill="#3C2482"/>
    <path d="M70.9014 46.6885C70.9489 46.6128 71.0059 46.5466 71.0771 46.4945C71.1436 46.4378 71.2338 46.3952 71.3335 46.3621C71.4333 46.329 71.5662 46.31 71.7277 46.2958C71.8891 46.2816 72.0791 46.2769 72.307 46.2769C72.6204 46.2769 72.8721 46.2911 73.0526 46.3195C73.2378 46.3479 73.366 46.3857 73.4514 46.4378C73.5274 46.4898 73.5654 46.5513 73.5559 46.6222C73.5464 46.6885 73.5179 46.7642 73.4514 46.8351L71.4428 49.2382C71.3858 49.3091 71.3335 49.3659 71.2766 49.4132C71.2243 49.4558 71.1531 49.4936 71.0629 49.522C70.9774 49.5457 70.8682 49.5693 70.7352 49.5835C70.6023 49.5977 70.436 49.6024 70.2414 49.6024C69.9992 49.6024 69.8092 49.593 69.6668 49.5693C69.5243 49.5504 69.4246 49.5173 69.3676 49.47C69.3154 49.4274 69.2916 49.3659 69.3011 49.2997C69.3106 49.2287 69.3486 49.153 69.4103 49.0584L70.9014 46.6885Z" fill="#3C2482"/>
    <path d="M71.5045 61.244L70.3838 64.5033C70.322 64.6783 70.1558 64.8013 69.8757 64.877C69.6002 64.9527 69.1966 64.9905 68.6648 64.9905C68.3893 64.9905 68.1662 64.9811 68 64.9574C67.8337 64.9338 67.7103 64.8959 67.6248 64.8391C67.5441 64.7824 67.4966 64.7162 67.4918 64.6357C67.4871 64.5506 67.5061 64.4512 67.5536 64.3377L68.7882 61.2487C68.698 61.2062 68.6173 61.1447 68.5461 61.0595C68.4701 60.9696 68.4178 60.8798 68.3846 60.7851L65.2077 52.3034C65.1175 52.0622 65.0748 51.8777 65.0748 51.75C65.0748 51.6223 65.1175 51.5229 65.1982 51.452C65.279 51.381 65.4214 51.3337 65.6161 51.3053C65.8156 51.2769 66.072 51.2627 66.3997 51.2627C66.6941 51.2627 66.9268 51.2675 67.1025 51.2769C67.2782 51.2864 67.4111 51.3148 67.5061 51.3526C67.6011 51.3952 67.677 51.4567 67.7198 51.5466C67.7673 51.6317 67.8148 51.7547 67.867 51.9155L70.0466 58.0888H70.0799L72.0553 51.7925C72.098 51.6128 72.1503 51.4945 72.2168 51.433C72.2785 51.3763 72.3925 51.3337 72.5444 51.3053C72.6964 51.2769 72.9671 51.2627 73.3469 51.2627C73.6461 51.2627 73.8978 51.2769 74.0925 51.3053C74.2919 51.3337 74.4344 51.381 74.5294 51.4614C74.6196 51.5371 74.6671 51.6364 74.6671 51.7642C74.6671 51.8919 74.6433 52.0433 74.5863 52.2136L71.5045 61.244ZM61.651 54.7302C61.2806 54.2618 60.9197 53.9023 60.5778 53.6516C60.2359 53.4056 59.875 53.2826 59.4999 53.2826C59.1627 53.2826 58.8683 53.3678 58.6261 53.5381C58.3792 53.7084 58.1845 53.9307 58.0325 54.2145C57.8853 54.4984 57.7713 54.8153 57.7001 55.1606C57.6241 55.5107 57.5909 55.8655 57.5909 56.2297C57.5909 56.6176 57.6241 56.9961 57.6811 57.3603C57.7429 57.7293 57.8473 58.0557 57.9898 58.3395C58.1322 58.6233 58.3174 58.8457 58.5549 59.0207C58.7876 59.1957 59.0867 59.2761 59.4476 59.2761C59.6233 59.2761 59.8038 59.2525 59.97 59.2004C60.1409 59.1484 60.3119 59.068 60.4876 58.945C60.6633 58.8267 60.8437 58.6754 61.0337 58.4861C61.2236 58.2969 61.4278 58.0651 61.6463 57.7908V54.7302H61.651ZM64.2438 64.5506C64.2438 64.6215 64.2248 64.683 64.182 64.7398C64.144 64.7918 64.0728 64.8439 63.9778 64.877C63.8829 64.9148 63.7499 64.9432 63.5837 64.9669C63.4175 64.9858 63.2038 65 62.9474 65C62.691 65 62.482 64.9905 62.3111 64.9669C62.1496 64.9479 62.0119 64.9196 61.9122 64.877C61.8077 64.8439 61.7412 64.7918 61.7032 64.7398C61.6652 64.683 61.6463 64.6215 61.6463 64.5506V60.1702C61.3993 60.3972 61.1524 60.5959 60.9197 60.7615C60.6823 60.9318 60.4496 61.069 60.2169 61.1778C59.9795 61.2818 59.7373 61.3623 59.4856 61.4096C59.2387 61.4569 58.9775 61.4805 58.6973 61.4805C58.0183 61.4805 57.4389 61.3433 56.9641 61.069C56.4892 60.7993 56.0998 60.4304 55.8007 59.9668C55.5015 59.5079 55.2783 58.9687 55.1406 58.349C55.0029 57.7293 54.9317 57.0812 54.9317 56.4C54.9317 55.5816 55.0219 54.8437 55.2023 54.1862C55.3828 53.5334 55.6439 52.9752 55.9906 52.5116C56.3373 52.048 56.7646 51.6979 57.268 51.4472C57.7761 51.2012 58.3602 51.0782 59.025 51.0782C59.2814 51.0782 59.5236 51.1019 59.761 51.1539C59.9937 51.206 60.2264 51.2958 60.4638 51.4236C60.6965 51.5513 60.9434 51.7169 61.1951 51.9203C61.4468 52.1237 61.7222 52.3697 62.0261 52.6677V51.6601C62.0261 51.5891 62.0451 51.5276 62.0879 51.4756C62.1211 51.4236 62.1876 51.381 62.2731 51.3432C62.3633 51.31 62.4725 51.2817 62.6102 51.2675C62.7479 51.2485 62.9284 51.2438 63.1516 51.2438C63.3558 51.2438 63.5315 51.2485 63.6739 51.2675C63.8164 51.2864 63.9304 51.3148 64.0158 51.3432C64.0966 51.3763 64.1583 51.4188 64.1915 51.4756C64.2248 51.5276 64.2438 51.5891 64.2438 51.6554V64.5506ZM51.4366 56.2912C51.4366 55.8371 51.4034 55.4161 51.3274 55.0329C51.2514 54.6497 51.1327 54.3186 50.957 54.0348C50.7813 53.751 50.5534 53.5286 50.2685 53.3725C49.9788 53.2117 49.6179 53.136 49.1763 53.136C48.7869 53.136 48.445 53.207 48.1506 53.3489C47.8609 53.4908 47.6187 53.6989 47.4335 53.9686C47.2436 54.2382 47.1059 54.5693 47.0109 54.9478C46.9159 55.3309 46.8684 55.7661 46.8684 56.2581C46.8684 56.7122 46.9064 57.1332 46.9824 57.5164C47.0584 57.8996 47.1866 58.2307 47.3528 58.5145C47.5237 58.7984 47.7517 59.016 48.0461 59.1721C48.3358 59.3282 48.6967 59.4039 49.1288 59.4039C49.5277 59.4039 49.8696 59.3329 50.164 59.191C50.4537 59.0491 50.6958 58.8457 50.881 58.576C51.071 58.3064 51.2087 57.98 51.2989 57.5968C51.3892 57.2184 51.4366 56.7832 51.4366 56.2912ZM54.1149 56.1919C54.1149 56.9771 54.0104 57.6914 53.8015 58.3395C53.5925 58.9876 53.2791 59.541 52.8565 60.0141C52.4339 60.4824 51.9068 60.8419 51.2704 61.1021C50.6341 61.3575 49.8886 61.4853 49.0386 61.4853C48.2123 61.4853 47.5 61.3717 46.8874 61.1447C46.2796 60.9176 45.7715 60.5865 45.3726 60.1513C44.9737 59.7161 44.6745 59.1863 44.4799 58.5476C44.2852 57.9138 44.1902 57.1947 44.1902 56.3764C44.1902 55.5911 44.2947 54.8721 44.5036 54.224C44.7173 53.5712 45.0307 53.013 45.4581 52.5494C45.8807 52.0858 46.4078 51.7263 47.0394 51.4709C47.671 51.2154 48.4117 51.0877 49.2618 51.0877C50.0928 51.0877 50.8146 51.2012 51.4224 51.4236C52.0302 51.6506 52.5336 51.977 52.9325 52.4122C53.3314 52.8474 53.6258 53.3773 53.8205 54.0159C54.0152 54.6403 54.1149 55.3688 54.1149 56.1919Z" fill="#3C2482"/>
    <path fill-rule="evenodd" clip-rule="evenodd" d="M9.91089 47.4926C9.91089 47.9515 9.91089 48.4151 9.92039 48.8739C9.92513 49.1956 9.88714 49.2382 10.0723 49.4179C10.6422 49.9714 11.9053 50.1369 12.7791 50.0991C13.5911 50.066 14.3889 49.9099 15.0489 49.6071C15.6758 49.3233 15.5998 49.1577 15.595 48.784C15.595 48.3299 15.576 47.8758 15.5713 47.4264C15.1107 47.5305 12.9168 48.2448 12.7268 48.24C12.3992 48.2306 10.2908 47.5163 9.91089 47.4926Z" fill="#CF0858"/>
    <path fill-rule="evenodd" clip-rule="evenodd" d="M8.55225 46.6838C8.55699 46.6886 8.56649 46.6886 8.57124 46.698C8.57599 46.7075 8.58549 46.7075 8.59024 46.7075C8.75169 46.7879 8.84666 46.7737 9.02711 46.7595L11.8098 46.5372C12.1232 46.5088 12.6551 46.4142 12.8925 46.5183C12.997 46.9014 12.7406 46.8494 12.4224 46.8778C11.9855 46.9109 10.1241 47.0339 9.96735 47.0812L12.5601 47.7955C12.845 47.8759 13.0587 47.7529 13.4624 47.6347C14.0512 47.4596 14.6115 47.2941 15.1956 47.1238C15.4188 47.0576 16.8102 46.6838 16.9146 46.6129C16.6487 46.5088 16.1691 46.4 15.8747 46.3196L13.79 45.7519C13.6381 45.7046 12.8213 45.4681 12.7263 45.4728C12.5269 45.4728 9.16482 46.5325 8.55225 46.6838Z" fill="#CF0858"/>
</svg>
