<svg width="430" height="343" viewBox="0 0 430 343" fill="none" xmlns="http://www.w3.org/2000/svg">
    <path d="M204.051 21.7216L204.591 0.000244141L22.5967 142.691C-7.49598 166.285 -7.53805 209.063 22.5056 232.709L72.0989 271.746C78.2367 276.578 87.2786 276.591 93.4304 271.772L139.972 235.312C153.749 224.519 161.69 208.694 161.69 192.037V175.031L82.0176 237.495L48.2352 210.903C32.7609 198.728 32.789 176.697 48.2843 164.548L186.065 56.5158C197.17 47.8092 203.714 35.1497 204.051 21.7216Z" fill="#DD9900"/>
    <path d="M187.876 112.585C187.876 121.453 183.654 129.882 176.316 135.631L82.7765 207.964L82.1592 208.629L74.415 202.532C64.5525 194.769 64.5665 180.72 74.4431 172.976L187.869 85.0509V112.585H187.876Z" fill="#DD9900"/>
    <path d="M72.0922 295.392L6.44238 243.714V269.679C6.44238 280.743 11.7034 291.252 20.8294 298.441L70.058 337.188C77.3742 342.943 88.1417 342.956 95.472 337.207L147.24 296.619C156.408 289.431 161.69 278.903 161.69 267.813V241.893L93.4307 295.412C87.2789 300.236 78.237 300.23 72.0922 295.392Z" fill="#DD9900"/>
    <path d="M204.592 0C204.592 0 197.907 29.9629 99.5127 103.336L110.035 116.131L180.16 61.1531C180.16 61.1531 203.196 46.0844 203.848 24.9637C204.494 3.8366 204.592 0 204.592 0Z" fill="url(#paint0_linear)"/>
    <path d="M47.1907 210.051C46.1736 209.095 20.4299 184.842 54.023 160.046L44.7286 148.258C25.284 167.125 9.84485 192.069 33.877 218.086L34.4732 218.525L47.1907 210.051Z" fill="url(#paint1_linear)"/>
    <path d="M187.875 85.0444C187.875 85.0444 182.776 117.274 151.196 137.685V155.053L176.315 135.624C176.315 135.624 188.907 126.879 187.875 109.001C187.939 94.7328 187.875 85.0444 187.875 85.0444Z" fill="url(#paint2_linear)"/>
    <path d="M82.7755 207.964C82.7755 207.964 74.6105 195.589 84.0592 186.857C93.5149 178.118 130.243 154.123 130.243 154.123L134.466 168.048L82.7755 207.964Z" fill="url(#paint3_linear)"/>
    <path d="M105.3 248.229C157.678 217.091 161.627 175.075 161.627 175.075C161.627 175.075 161.69 177.039 161.627 191.319C162.658 209.198 150.067 225.662 150.067 225.662C150.067 225.662 141.916 234.878 125.593 246.576C109.27 258.273 108.919 260.637 109.27 258.279C109.614 255.909 105.3 248.229 105.3 248.229Z" fill="url(#paint4_linear)"/>
    <path d="M96.0338 319.852C92.6106 322.546 88.2826 323.741 84.0598 323.437C79.837 323.741 75.509 322.552 72.0859 319.852C72.0859 319.852 17.3718 291.704 6.43604 243.714V269.679C6.43604 280.743 11.697 291.252 20.83 298.441L70.0586 337.188C74.064 340.346 79.1145 341.767 84.0668 341.47C89.0191 341.767 94.0627 340.346 98.075 337.188L147.304 298.441C156.437 291.252 161.698 280.743 161.698 269.679V241.893C154.052 287.151 96.0338 319.852 96.0338 319.852Z" fill="url(#paint5_linear)"/>
    <path d="M214.417 316.433H193.835V335.525H216.773V341.262H187V288.309H215.598V294.046H193.835V310.778H214.417V316.433Z" fill="white"/>
    <path d="M225.417 285.479H232.329V341.257H225.417V285.479Z" fill="white"/>
    <path d="M267.52 288.516V319.861C267.52 331.721 272.783 336.752 279.855 336.752C287.71 336.752 292.741 331.567 292.741 319.861V288.516H299.654V319.392C299.654 335.654 291.092 342.33 279.623 342.33C268.783 342.33 260.613 336.123 260.613 319.706V288.516H267.52Z" fill="white"/>
    <path d="M311.437 313.525C311.437 309.597 311.36 306.376 311.123 303.232H317.174L317.489 309.36H317.726C319.844 305.747 323.38 302.371 329.669 302.371C334.854 302.371 338.782 305.515 340.432 309.989H340.586C341.767 307.865 343.256 306.216 344.829 305.041C347.107 303.314 349.622 302.371 353.236 302.371C358.261 302.371 365.725 305.67 365.725 318.871V341.262H358.968V319.737C358.968 312.432 356.298 308.03 350.72 308.03C346.793 308.03 343.731 310.938 342.55 314.314C342.236 315.257 341.999 316.515 341.999 317.773V341.262H335.241V318.479C335.241 312.427 332.571 308.03 327.308 308.03C322.989 308.03 319.844 311.489 318.746 314.943C318.355 315.963 318.195 317.144 318.195 318.319V341.257H311.437V313.525Z" fill="white"/>
    <path d="M384.657 292.551C384.735 294.907 383.008 296.794 380.255 296.794C377.822 296.794 376.091 294.907 376.091 292.551C376.091 290.113 377.9 288.232 380.41 288.232C383.008 288.232 384.657 290.113 384.657 292.551ZM376.957 341.257V303.232H383.869V341.257H376.957Z" fill="white"/>
    <path d="M403.668 292.314V303.237H413.565V308.5H403.668V329.005C403.668 333.716 405.003 336.391 408.854 336.391C410.663 336.391 411.998 336.154 412.859 335.922L413.173 341.107C411.838 341.659 409.714 342.051 407.044 342.051C403.823 342.051 401.23 341.03 399.581 339.144C397.617 337.102 396.911 333.721 396.911 329.247V308.505H391.019V303.242H396.911V294.129L403.668 292.314Z" fill="white"/>
    <path d="M429.043 292.551C429.121 294.907 427.394 296.794 424.641 296.794C422.208 296.794 420.476 294.907 420.476 292.551C420.476 290.113 422.286 288.232 424.796 288.232C427.394 288.232 429.043 290.113 429.043 292.551ZM421.342 341.257V303.232H428.255V341.257H421.342Z" fill="white"/>
    <path d="M285.88 276H280.54L276.643 285.758H280.54L285.88 276Z" fill="white"/>
    <defs>
        <linearGradient id="paint0_linear" x1="104.978" y1="111.477" x2="206.231" y2="1.51241" gradientUnits="userSpaceOnUse">
            <stop stop-color="#DD9900"/>
            <stop offset="1" stop-color="#8E6B14"/>
        </linearGradient>
        <linearGradient id="paint1_linear" x1="37.8225" y1="218.522" x2="37.8225" y2="148.258" gradientUnits="userSpaceOnUse">
            <stop stop-color="#DD9900"/>
            <stop offset="0.0937" stop-color="#D59402"/>
            <stop offset="0.2401" stop-color="#BF8708"/>
            <stop offset="0.4201" stop-color="#9B7211"/>
            <stop offset="0.4799" stop-color="#8D6A14"/>
            <stop offset="0.4885" stop-color="#8F6B14"/>
            <stop offset="0.7153" stop-color="#B98409"/>
            <stop offset="0.8931" stop-color="#D39302"/>
            <stop offset="0.9987" stop-color="#DD9900"/>
        </linearGradient>
        <linearGradient id="paint2_linear" x1="151.195" y1="120.052" x2="187.937" y2="120.052" gradientUnits="userSpaceOnUse">
            <stop stop-color="#DD9900"/>
            <stop offset="1" stop-color="#8E6B14"/>
        </linearGradient>
        <linearGradient id="paint3_linear" x1="75.7464" y1="194.252" x2="135.299" y2="164.093" gradientUnits="userSpaceOnUse">
            <stop stop-color="#8E6B14"/>
            <stop offset="1" stop-color="#DD9900"/>
        </linearGradient>
        <linearGradient id="paint4_linear" x1="100.785" y1="251.286" x2="166.678" y2="179.723" gradientUnits="userSpaceOnUse">
            <stop stop-color="#DD9900"/>
            <stop offset="1" stop-color="#8E6B14"/>
        </linearGradient>
        <linearGradient id="paint5_linear" x1="6.44214" y1="291.703" x2="161.688" y2="291.703" gradientUnits="userSpaceOnUse">
            <stop stop-color="#8E6B14"/>
            <stop offset="1" stop-color="#DD9900"/>
        </linearGradient>
    </defs>
</svg>
