<svg width="27" height="48" viewBox="0 0 27 48" fill="none" xmlns="http://www.w3.org/2000/svg">
    <path d="M26.523 3.05305L26.5929 0.000244141L3.04062 20.0555C-0.85389 23.3717 -0.859349 29.3841 3.02881 32.7076L9.44704 38.1945C10.2414 38.8735 11.4116 38.8753 12.2077 38.1981L16.3817 34.6469C17.1039 34.0842 17.7021 33.5626 18.1762 33.1202L18.231 33.0735C18.5685 32.7864 18.8789 32.4739 19.1604 32.1401C19.4112 31.8711 19.5365 31.7172 19.5365 31.7172C19.5365 31.7172 19.7564 31.4048 20.0281 30.885C20.4148 30.1924 20.6974 29.444 20.8644 28.6644C20.9748 28.1829 21.0439 27.6699 21.0402 27.1448C21.0411 27.0937 21.0416 27.0424 21.0416 26.9912V24.6009L21.0326 24.6086L10.7307 33.3803L6.35866 29.6429C6.30677 29.5985 6.25623 29.5533 6.20703 29.5071C5.94098 29.2306 3.08944 26.1354 6.66602 22.8712L23.431 8.59525C23.431 8.59525 23.7725 8.35266 24.2276 7.91662C24.8891 7.34581 25.4238 6.6564 25.8103 5.89292C26.1916 5.19537 26.4714 4.38998 26.4967 3.50977C26.5106 3.3584 26.5195 3.20608 26.523 3.05305Z" fill="white"/>
    <path d="M22.9335 19.0632L22.9461 19.0524C22.9807 19.0249 23.0832 18.9397 23.2194 18.7963C23.9711 18.0268 24.4057 16.9968 24.4286 15.9142C24.4396 15.7249 24.4405 15.527 24.4296 15.3203C24.4377 13.315 24.4296 11.9532 24.4296 11.9532L9.74934 24.3113C8.47114 25.3997 8.46932 27.3742 9.7457 28.4654L10.7479 29.3224L10.8275 29.2293L17.5175 23.6195L17.5156 23.6128L22.9335 19.0632Z" fill="white"/>
    <path d="M0.949036 34.2546L9.44523 41.518C10.2405 42.1979 11.4107 42.1988 12.2068 41.5207L21.0407 33.9986V34.0043V33.9986L21.0416 37.904C21.0416 39.459 20.3608 40.9361 19.1788 41.9465L12.8078 47.3924C12.2892 47.8358 11.6375 48.0355 10.9974 47.9945C10.6902 48.0149 10.38 47.9795 10.0831 47.8883C9.7599 47.7893 9.45251 47.6241 9.18198 47.3924L2.81096 41.9465C1.62898 40.9361 0.94812 39.459 0.94812 37.904L0.949036 34.2546V34.2589V34.2546Z" fill="white"/>
</svg>
