<svg width="24" height="24" viewBox="0 0 24 24" fill="none" xmlns="http://www.w3.org/2000/svg">
    <path d="M12 2.31888C15.1533 2.31888 15.5264 2.33107 16.7719 2.38779C17.9232 2.44029 18.5485 2.63247 18.9647 2.79419C19.516 3.00841 19.9093 3.26435 20.3227 3.67732C20.7361 4.09075 20.9921 4.48404 21.2058 5.03529C21.3675 5.45154 21.5597 6.07685 21.6122 7.2281C21.6689 8.4731 21.6811 8.84669 21.6811 12C21.6811 15.1533 21.6689 15.5264 21.6122 16.7718C21.5597 17.9231 21.3675 18.5484 21.2058 18.9647C20.9916 19.5159 20.7357 19.9092 20.3227 20.3226C19.9093 20.7361 19.516 20.992 18.9647 21.2058C18.5485 21.3675 17.9232 21.5597 16.7719 21.6122C15.5269 21.6689 15.1533 21.6811 12 21.6811C8.84676 21.6811 8.47316 21.6689 7.22816 21.6122C6.07691 21.5597 5.4516 21.3675 5.03535 21.2058C4.4841 20.9915 4.09082 20.7356 3.67738 20.3226C3.26394 19.9092 3.008 19.5159 2.79425 18.9647C2.63253 18.5484 2.44035 17.9231 2.38785 16.7718C2.33113 15.5268 2.31894 15.1533 2.31894 12C2.31894 8.84669 2.33113 8.47357 2.38785 7.2281C2.44035 6.07685 2.63253 5.45154 2.79425 5.03529C3.00847 4.48404 3.26441 4.09075 3.67738 3.67732C4.09082 3.26388 4.4841 3.00794 5.03535 2.79419C5.4516 2.63247 6.07691 2.44029 7.22816 2.38779C8.47363 2.33107 8.84676 2.31888 12 2.31888ZM12 0.191223C8.79285 0.191223 8.39066 0.204817 7.13113 0.262473C5.87441 0.319661 5.01566 0.519348 4.26472 0.811379C3.488 1.11325 2.82941 1.51685 2.17316 2.17357C1.51691 2.82982 1.11285 3.48841 0.810972 4.26466C0.518941 5.0156 0.319253 5.87435 0.262065 7.13107C0.204878 8.3906 0.191284 8.79279 0.191284 12C0.191284 15.2072 0.204878 15.6093 0.262534 16.8689C0.319722 18.1256 0.519409 18.9843 0.811441 19.7353C1.11332 20.512 1.51691 21.1706 2.17363 21.8268C2.83035 22.4836 3.48847 22.8872 4.26519 23.189C5.01613 23.4811 5.87488 23.6808 7.1316 23.7379C8.39113 23.7956 8.79332 23.8092 12.0005 23.8092C15.2077 23.8092 15.6099 23.7956 16.8694 23.7379C18.1261 23.6808 18.9849 23.4811 19.7358 23.189C20.5125 22.8872 21.1711 22.4836 21.8274 21.8268C22.4841 21.1701 22.8877 20.512 23.1896 19.7353C23.4816 18.9843 23.6813 18.1256 23.7385 16.8689C23.7961 15.6093 23.8097 15.2072 23.8097 12C23.8097 8.79279 23.7961 8.3906 23.7385 7.13107C23.6813 5.87435 23.4816 5.0156 23.1896 4.26466C22.8877 3.48794 22.4841 2.82935 21.8274 2.1731C21.1707 1.51638 20.5125 1.11279 19.7358 0.810911C18.9849 0.518879 18.1261 0.319192 16.8694 0.262004C15.6094 0.204817 15.2072 0.191223 12 0.191223Z" fill="white"/>
    <path d="M12 5.93616C8.65081 5.93616 5.93628 8.65116 5.93628 11.9999C5.93628 15.3487 8.65081 18.0637 12 18.0637C15.3492 18.0637 18.0638 15.3491 18.0638 11.9999C18.0638 8.65069 15.3492 5.93616 12 5.93616ZM12 15.936C9.82596 15.936 8.06393 14.1735 8.06393 11.9999C8.06393 9.82631 9.82643 8.06381 12 8.06381C14.1741 8.06381 15.9361 9.82631 15.9361 11.9999C15.9361 14.1735 14.1741 15.936 12 15.936Z" fill="white"/>
    <path d="M18.3037 7.1133C19.0863 7.1133 19.7208 6.47888 19.7208 5.69627C19.7208 4.91366 19.0863 4.27924 18.3037 4.27924C17.5211 4.27924 16.8867 4.91366 16.8867 5.69627C16.8867 6.47888 17.5211 7.1133 18.3037 7.1133Z" fill="white"/>
</svg>
