<svg width="331" height="598" viewBox="0 0 331 598" fill="none" xmlns="http://www.w3.org/2000/svg">
    <path d="M329.641 38.0352L330.511 0.00231934L37.0894 249.857C-11.4297 291.172 -11.4977 366.077 36.9423 407.482L116.903 475.839C126.799 484.298 141.377 484.321 151.296 475.884L203.297 431.642C212.295 424.631 219.747 418.133 225.653 412.621L226.337 412.04C230.541 408.463 234.408 404.57 237.916 400.411C241.039 397.06 242.6 395.143 242.6 395.143C242.6 395.143 245.341 391.251 248.726 384.774C253.543 376.146 257.063 366.822 259.144 357.11C260.52 351.112 261.381 344.72 261.334 338.179C261.346 337.541 261.352 336.903 261.352 336.264V306.485L261.239 306.581L132.895 415.863L78.4266 369.3C77.7802 368.748 77.1505 368.184 76.5376 367.609C73.223 364.164 37.6976 325.603 82.2558 284.936L291.12 107.082C291.12 107.082 295.374 104.06 301.043 98.6271C309.285 91.5158 315.946 82.9269 320.761 73.4152C325.511 64.725 328.998 54.6911 329.313 43.7252C329.487 41.8394 329.597 39.9417 329.641 38.0352Z" fill="#DD9B00"/>
    <path d="M284.921 237.495L285.079 237.361C285.509 237.017 286.786 235.956 288.484 234.17C297.848 224.584 303.263 211.751 303.548 198.264C303.685 195.906 303.697 193.439 303.56 190.865C303.662 165.881 303.56 148.917 303.56 148.917L120.669 302.877C104.745 316.438 104.722 341.037 120.624 354.631L133.11 365.308L134.101 364.147L217.447 294.259L217.424 294.176L284.921 237.495Z" fill="#DD9B00"/>
    <path d="M11.0317 426.754L116.88 517.244C126.788 525.715 141.366 525.726 151.285 517.278L261.341 423.565V423.637V423.565L261.352 472.22C261.352 491.593 252.87 509.994 238.144 522.582L158.772 590.43C152.311 595.953 144.192 598.442 136.217 597.93C132.39 598.185 128.526 597.744 124.827 596.608C120.8 595.374 116.971 593.316 113.6 590.43L34.2282 522.582C19.5027 509.994 11.0203 491.593 11.0203 472.22L11.0317 426.754V426.808V426.754Z" fill="#DD9B00"/>
</svg>
