<svg width="160" height="120" viewBox="0 0 160 120" fill="none" xmlns="http://www.w3.org/2000/svg">
    <path d="M97.1041 13.7201C95.5447 14.1089 93.8669 14.5356 92.428 15.0405C90.3495 15.5675 88.2709 16.1177 86.1922 16.6679C81.6776 17.8628 77.1627 19.0579 72.6482 20.0155C65.695 21.5314 58.9816 22.9293 51.9084 24.2126C42.9174 25.8452 28.4114 27.9435 18.9414 28.6825C18.1409 28.7515 17.2453 28.8514 16.3499 28.9514C15.2339 29.076 14.1182 29.2005 13.187 29.2651L7.43256 29.6153C7.91216 29.1487 8.75154 28.5268 9.47072 28.0605C13.0333 25.5374 15.1294 24.2273 18.053 22.4C18.8677 21.8908 19.7466 21.3415 20.7394 20.7146C21.6984 20.1711 22.2973 19.8209 23.1364 19.3158C27.0928 17.1388 31.5285 14.8074 35.7234 13.0599C35.8466 13.0057 36.0025 12.9366 36.1864 12.8553C38.5106 11.8268 45.2918 8.82599 46.5138 8.86123C46.5949 8.79568 46.6349 8.76115 46.6615 8.73816C46.7138 8.69304 46.7144 8.69247 46.8735 8.58916L52.9874 6.56905C61.8585 3.6537 75.645 1.20462 84.9958 0.582718C85.3186 0.558616 85.6722 0.53287 86.0439 0.505809C87.467 0.402201 89.1547 0.279327 90.3905 0.155688C91.3578 0.0719439 92.4985 0.0669372 93.6073 0.06207C94.56 0.0578887 95.4892 0.0538104 96.2648 0L101.898 0.155688C102.923 0.155688 103.914 0.222361 104.925 0.290413C105.807 0.34978 106.704 0.410195 107.654 0.428308C108.373 0.466332 109.572 0.582718 110.291 0.660835C110.89 0.7445 111.491 0.78807 112.134 0.834776C112.391 0.853417 112.655 0.872557 112.928 0.894945C114.247 1.0496 127.194 2.68222 128.033 3.45944C126.647 3.94784 125.2 4.48524 123.754 5.02254C122.323 5.55399 120.892 6.08533 119.521 6.56905C116.677 7.49042 114.131 8.34798 111.339 9.28852C111.072 9.37842 110.803 9.46909 110.531 9.56064L97.1041 13.7201Z" fill="#FEFEFE"/>
    <path d="M90.9903 21.6092L102.618 18.3051L103.218 18.15C103.337 18.0719 103.458 18.0327 103.577 17.9944C104.057 17.8385 104.177 17.7999 104.656 17.6835L110.531 15.8181C112.494 15.1389 114.41 14.5165 116.308 13.9001C119.623 12.8231 122.88 11.7648 126.236 10.4552L134.027 7.61768C134.027 14.8463 133.668 19.8209 132.109 26.5055C131.752 28.0117 131.328 29.2802 130.887 30.6009C130.736 31.0525 130.584 31.5102 130.431 31.9856C130.299 32.2412 130.204 32.5667 130.105 32.9046C130.024 33.1836 129.94 33.471 129.831 33.7346C129.773 33.9039 129.722 34.0619 129.673 34.214C129.519 34.6901 129.384 35.1087 129.112 35.6393C128.92 36.0897 128.729 36.5773 128.537 37.0649C128.25 37.7976 127.962 38.5303 127.674 39.1367L125.996 42.4788C124.331 45.7168 122.756 47.9302 120.88 50.567C120.594 50.9684 120.302 51.3795 120.001 51.8056C119.784 52.1106 119.568 52.3729 119.351 52.6353C119.208 52.8082 119.065 52.9812 118.922 53.1665C117.843 54.7991 111.73 61.3276 110.291 62.3389C109.755 62.6866 108.753 62.3004 107.682 61.8877C107.316 61.7466 106.941 61.6023 106.575 61.4832C103.218 60.3948 97.942 58.8403 94.7063 58.064L94.3883 57.9878C86.6476 56.1336 76.9761 53.817 69.1714 53.089C68.1083 52.9925 67.0301 52.8764 65.9475 52.7599C63.9782 52.548 61.9943 52.3345 60.0601 52.2342C50.8296 51.8449 40.759 51.923 32.3678 54.7601L28.8917 56.2757C27.9321 56.8198 26.6134 57.6749 25.8934 58.4135C25.0546 59.1126 24.2165 60.1619 23.6169 61.2115C22.9942 62.5958 22.9653 63.0382 22.8941 64.1267C22.8693 64.5054 22.8394 64.9624 22.7776 65.5646C20.499 64.5153 13.0673 56.9369 11.1494 54.5659C7.19273 49.7466 4.79546 46.2486 2.03816 40.6526C1.67845 39.9136 0.119885 36.6882 0 36.0666C2.27769 36.0666 5.15517 35.9496 7.07345 35.6776L14.026 35.1724C41.8385 32.413 58.5016 29.6539 84.8762 23.2029C85.9514 22.9505 86.9377 22.6793 87.924 22.4082C88.916 22.1354 89.908 21.8627 90.9903 21.6092Z" fill="#FEFEFE"/>
    <path d="M31.1662 82.2012H27.6734V70.5861H30.9661L36.2053 76.7255V70.5861H39.6981V82.2012H36.6055L31.1662 75.8295V82.2012Z" fill="#FEFEFE"/>
    <path d="M53.6512 77.0242C53.6512 80.7742 51.3045 82.4169 47.6843 82.4169C44.0642 82.4169 41.7902 80.741 41.7902 77.1071V70.5861H45.374V77.0408C45.374 78.7167 46.3017 79.5132 47.7207 79.5132C49.1397 79.5132 50.0674 78.7499 50.0674 77.1237V70.5861H53.6512V77.0242Z" fill="#FEFEFE"/>
    <path fill-rule="evenodd" clip-rule="evenodd" d="M59.2724 82.2012H55.7433V70.5861H61.7647C63.7113 70.5861 65.0574 71.0507 65.9124 71.8306C66.6583 72.5109 67.0404 73.4069 67.0404 74.585C67.0404 76.3605 66.0034 77.5386 64.4207 78.1525L67.4587 82.2012H63.3838L60.8188 78.6835H59.2724V82.2012ZM59.2724 73.3737V76.1613H61.601C62.8017 76.1613 63.4929 75.6304 63.4929 74.751C63.4929 73.8384 62.7652 73.3737 61.5829 73.3737H59.2724Z" fill="#FEFEFE"/>
    <path d="M78.9741 78.6171C78.9741 80.9899 76.9185 82.4003 73.8259 82.4003C71.5701 82.4003 69.4234 81.7532 67.859 80.4756L69.8236 78.3351C71.0789 79.2476 72.4796 79.7288 73.9532 79.7288C74.8991 79.7288 75.4085 79.4302 75.4085 78.8992C75.4085 78.418 74.9901 78.1525 73.2619 77.7874C70.5513 77.2233 68.4593 76.5264 68.4593 74.1038C68.4593 71.9468 70.3331 70.387 73.3892 70.387C75.5541 70.387 77.2459 70.918 78.6284 71.9301L76.8638 74.2034C75.6996 73.4567 74.4261 73.0585 73.2982 73.0585C72.4432 73.0585 72.0249 73.3904 72.0249 73.8384C72.0249 74.3693 72.4615 74.6016 74.226 74.9667C77.1549 75.5474 78.9741 76.4102 78.9741 78.6171Z" fill="#FEFEFE"/>
    <path d="M92.3814 77.0242C92.3814 80.7742 90.0346 82.4169 86.4145 82.4169C82.7943 82.4169 80.5203 80.741 80.5203 77.1071V70.5861H84.1041V77.0408C84.1041 78.7167 85.0319 79.5132 86.4509 79.5132C87.8698 79.5132 88.7976 78.7499 88.7976 77.1237V70.5861H92.3814V77.0242Z" fill="#FEFEFE"/>
    <path d="M104.17 82.2012H94.4735V70.5861H98.0026V79.3804H104.17V82.2012Z" fill="#FEFEFE"/>
    <path d="M110.5 82.2012H106.971V73.4069H103.151V70.5861H114.321V73.4069H110.5V82.2012Z" fill="#FEFEFE"/>
    <path fill-rule="evenodd" clip-rule="evenodd" d="M116.922 82.2012H113.211L118.632 70.5032H122.034L127.455 82.2012H123.671L122.743 80.1271H117.832L116.922 82.2012ZM120.306 74.3195L118.869 77.6215H121.725L120.306 74.3195Z" fill="#FEFEFE"/>
    <path d="M132.185 82.2012H128.692V70.5861H131.985L137.224 76.7255V70.5861H140.717V82.2012H137.624L132.185 75.8295V82.2012Z" fill="#FEFEFE"/>
    <path d="M31.1662 100.984H27.6734V89.3693H30.9661L36.2053 95.5087V89.3693H39.6981V100.984H36.6055L31.1662 94.6128V100.984Z" fill="#FEFEFE"/>
    <path fill-rule="evenodd" clip-rule="evenodd" d="M44.6463 100.984H40.9351L46.3563 89.2864H49.7582L55.1793 100.984H51.3954L50.4677 98.9103H45.5559L44.6463 100.984ZM48.03 93.1028L46.5928 96.4048H49.4489L48.03 93.1028Z" fill="#FEFEFE"/>
    <path d="M67.2768 100.984H56.0161V98.6448L62.4014 92.0906H56.2344V89.3693H67.2768V91.709L60.8915 98.2632H67.2768V100.984Z" fill="#FEFEFE"/>
    <path fill-rule="evenodd" clip-rule="evenodd" d="M71.8065 100.984H68.0954L73.5166 89.2864H76.9185L82.3396 100.984H78.5557L77.6279 98.9103H72.7161L71.8065 100.984ZM75.1902 93.1028L73.7531 96.4048H76.6092L75.1902 93.1028Z" fill="#FEFEFE"/>
    <path fill-rule="evenodd" clip-rule="evenodd" d="M87.1058 100.984H83.5766V89.3693H89.5981C91.5446 89.3693 92.8908 89.834 93.7458 90.6139C94.4917 91.2942 94.8737 92.1902 94.8737 93.3683C94.8737 95.1437 93.8367 96.3218 92.2541 96.9358L95.2921 100.984H91.2171L88.6521 97.4667H87.1058V100.984ZM87.1058 92.157V94.9446H89.4343C90.635 94.9446 91.3263 94.4136 91.3263 93.5342C91.3263 92.6216 90.5986 92.157 89.4162 92.157H87.1058Z" fill="#FEFEFE"/>
    <path fill-rule="evenodd" clip-rule="evenodd" d="M103.224 100.984H96.6565V89.3693H103.187C104.788 89.3693 105.916 89.7344 106.662 90.4147C107.171 90.8793 107.481 91.4933 107.481 92.3229C107.481 93.667 106.644 94.4634 105.516 94.9114C107.062 95.3761 108.044 96.1725 108.044 97.782C108.044 99.7731 106.262 100.984 103.224 100.984ZM100.095 96.2555V98.3959H102.823C103.897 98.3959 104.515 98.0143 104.515 97.3008C104.515 96.6703 103.969 96.2555 102.787 96.2555H100.095ZM100.095 91.9579V93.9988H102.314C103.387 93.9988 103.988 93.667 103.988 92.9534C103.988 92.3229 103.442 91.9579 102.387 91.9579H100.095Z" fill="#FEFEFE"/>
    <path fill-rule="evenodd" clip-rule="evenodd" d="M112.356 100.984H108.645L114.066 89.2864H117.468L122.889 100.984H119.105L118.177 98.9103H113.266L112.356 100.984ZM115.74 93.1028L114.302 96.4048H117.159L115.74 93.1028Z" fill="#FEFEFE"/>
    <path d="M129.347 100.984H125.8V96.6371L120.961 89.3693H124.981L127.601 93.6006L130.238 89.3693H134.186L129.347 96.5873V100.984Z" fill="#FEFEFE"/>
    <path d="M145.61 100.984H135.277V89.3693H145.519V92.1072H138.77V93.8661H144.883V96.4048H138.77V98.2466H145.61V100.984Z" fill="#FEFEFE"/>
    <path d="M154.834 101.067H151.559L146.393 89.3693H150.34L153.233 96.7201L156.125 89.3693H160L154.834 101.067Z" fill="#FEFEFE"/>
    <path d="M31.2026 119.768H27.6734V108.153H37.8608V110.973H31.2026V112.948H37.2241V115.619H31.2026V119.768Z" fill="#FEFEFE"/>
    <path fill-rule="evenodd" clip-rule="evenodd" d="M52.7416 113.96C52.7416 117.295 49.7945 120 45.8651 120C41.9358 120 39.0251 117.329 39.0251 113.96C39.0251 110.625 41.9721 107.92 45.9016 107.92C49.831 107.92 52.7416 110.592 52.7416 113.96ZM42.6452 113.96C42.6452 115.636 43.9732 117.096 45.9016 117.096C47.848 117.096 49.1397 115.669 49.1397 113.96C49.1397 112.284 47.8116 110.824 45.8651 110.824C43.9368 110.824 42.6452 112.251 42.6452 113.96Z" fill="#FEFEFE"/>
    <path d="M66.2763 114.591C66.2763 118.341 63.9295 119.983 60.3094 119.983C56.6893 119.983 54.4153 118.308 54.4153 114.674V108.153H57.9991V114.607C57.9991 116.283 58.9268 117.08 60.3458 117.08C61.7647 117.08 62.6925 116.316 62.6925 114.69V108.153H66.2763V114.591Z" fill="#FEFEFE"/>
    <path d="M71.8611 119.768H68.3684V108.153H71.6611L76.9002 114.292V108.153H80.3931V119.768H77.3005L71.8611 113.396V119.768Z" fill="#FEFEFE"/>
    <path fill-rule="evenodd" clip-rule="evenodd" d="M87.4878 119.768H82.6489V108.153H87.5606C92.1086 108.153 94.7463 110.542 94.7463 113.927C94.7463 117.279 92.0722 119.768 87.4878 119.768ZM86.178 110.973V116.914H87.6152C89.7254 116.914 91.1262 115.852 91.1262 113.944C91.1262 112.085 89.7254 110.973 87.6152 110.973H86.178Z" fill="#FEFEFE"/>
    <path fill-rule="evenodd" clip-rule="evenodd" d="M98.3483 119.768H94.6372L100.058 108.07H103.46L108.881 119.768H105.097L104.17 117.694H99.2579L98.3483 119.768ZM101.732 111.886L100.295 115.188H103.151L101.732 111.886Z" fill="#FEFEFE"/>
    <path d="M115.121 119.768H111.592V110.973H107.772V108.153H118.941V110.973H115.121V119.768Z" fill="#FEFEFE"/>
    <path d="M124.108 119.768H120.561V108.153H124.108V119.768Z" fill="#FEFEFE"/>
    <path fill-rule="evenodd" clip-rule="evenodd" d="M139.716 113.96C139.716 117.295 136.769 120 132.84 120C128.91 120 126 117.329 126 113.96C126 110.625 128.947 107.92 132.876 107.92C136.806 107.92 139.716 110.592 139.716 113.96ZM129.62 113.96C129.62 115.636 130.948 117.096 132.876 117.096C134.823 117.096 136.114 115.669 136.114 113.96C136.114 112.284 134.786 110.824 132.84 110.824C130.911 110.824 129.62 112.251 129.62 113.96Z" fill="#FEFEFE"/>
    <path d="M145.047 119.768H141.554V108.153H144.846L150.086 114.292V108.153H153.578V119.768H150.486L145.047 113.396V119.768Z" fill="#FEFEFE"/>
</svg>
