<svg width="24" height="24" viewBox="0 0 24 24" fill="none" xmlns="http://www.w3.org/2000/svg">
    <path fill-rule="evenodd" clip-rule="evenodd" d="M15.6806 0H8.3194C1.60075 0 0 1.60075 0 8.3194V15.6806C0 22.3992 1.60075 24 8.3194 24H15.6806C22.3992 24 24 22.3992 24 15.6806V8.3194C24 1.60075 22.3992 0 15.6806 0ZM19.1245 7.62596C19.6543 7.62596 19.767 7.89651 19.6543 8.26851C19.4345 9.28871 17.2983 12.2929 17.2926 12.2929C17.1066 12.586 17.0333 12.7382 17.2926 13.0708C17.3827 13.1963 17.5732 13.3826 17.7918 13.5965C18.0247 13.8243 18.2895 14.0833 18.4988 14.3333C19.2485 15.1788 19.8177 15.8946 19.9756 16.385C20.1221 16.881 19.8741 17.129 19.3725 17.129H17.6252C17.1542 17.129 16.9194 16.8678 16.4096 16.3004C16.1933 16.0597 15.9277 15.7641 15.5735 15.4099C14.5364 14.4066 14.0911 14.277 13.8318 14.277C13.4824 14.277 13.3753 14.3728 13.3753 14.8744V16.4414C13.3753 16.8754 13.2344 17.1234 12.124 17.1234C10.2696 17.1234 8.23484 15.9961 6.78627 13.9219C4.61624 10.8782 4.02441 8.57852 4.02441 8.11633C4.02441 7.85705 4.12023 7.62032 4.62188 7.62032H6.36918C6.81446 7.62032 6.98355 7.8176 7.15264 8.30233C8.00938 10.7936 9.45231 12.9749 10.0441 12.9749C10.2696 12.9749 10.3711 12.8735 10.3711 12.3098V9.73399C10.3327 8.99823 10.0765 8.68098 9.88661 8.44592C9.76958 8.30102 9.67777 8.18735 9.67777 8.02614C9.67777 7.83451 9.84686 7.62596 10.1231 7.62596H12.8736C13.2456 7.62596 13.3753 7.82323 13.3753 8.26851V11.7349C13.3753 12.1069 13.5331 12.2366 13.6458 12.2366C13.8713 12.2366 14.0573 12.1069 14.4631 11.7011C15.7257 10.292 16.6162 8.12196 16.6162 8.12196C16.729 7.86269 16.9319 7.62596 17.3772 7.62596H19.1245Z" fill="white"/>
</svg>
