<svg width="302" height="171" viewBox="0 0 302 171" fill="none" xmlns="http://www.w3.org/2000/svg">
    <rect y="0.0131226" width="302" height="170" rx="8" fill="white" fill-opacity="0.08"/>
    <g opacity="0.48">
        <mask id="path-2-outside-1" maskUnits="userSpaceOnUse" x="124.511" y="15.0131" width="54" height="54" fill="black">
            <rect fill="white" x="124.511" y="15.0131" width="54" height="54"/>
            <path fill-rule="evenodd" clip-rule="evenodd" d="M176.808 41.5632C176.808 55.6742 165.324 67.1133 151.159 67.1133C136.994 67.1133 125.511 55.6742 125.511 41.5632C125.511 27.4523 136.994 16.0131 151.159 16.0131C165.324 16.0131 176.808 27.4523 176.808 41.5632ZM176.117 41.5636C176.117 55.2945 164.943 66.4255 151.16 66.4255C137.376 66.4255 126.202 55.2945 126.202 41.5636C126.202 27.8328 137.376 16.7017 151.16 16.7017C164.943 16.7017 176.117 27.8328 176.117 41.5636Z"/>
        </mask>
        <path fill-rule="evenodd" clip-rule="evenodd" d="M176.808 41.5632C176.808 55.6742 165.324 67.1133 151.159 67.1133C136.994 67.1133 125.511 55.6742 125.511 41.5632C125.511 27.4523 136.994 16.0131 151.159 16.0131C165.324 16.0131 176.808 27.4523 176.808 41.5632ZM176.117 41.5636C176.117 55.2945 164.943 66.4255 151.16 66.4255C137.376 66.4255 126.202 55.2945 126.202 41.5636C126.202 27.8328 137.376 16.7017 151.16 16.7017C164.943 16.7017 176.117 27.8328 176.117 41.5636Z" fill="white"/>
        <path d="M151.159 68.1133C165.873 68.1133 177.808 56.2301 177.808 41.5632H175.808C175.808 55.1183 164.776 66.1133 151.159 66.1133V68.1133ZM124.511 41.5632C124.511 56.2301 136.445 68.1133 151.159 68.1133V66.1133C137.543 66.1133 126.511 55.1183 126.511 41.5632H124.511ZM151.159 15.0131C136.445 15.0131 124.511 26.8964 124.511 41.5632H126.511C126.511 28.0082 137.543 17.0131 151.159 17.0131V15.0131ZM177.808 41.5632C177.808 26.8964 165.873 15.0131 151.159 15.0131V17.0131C164.776 17.0131 175.808 28.0082 175.808 41.5632H177.808ZM151.16 67.4255C165.492 67.4255 177.117 55.8504 177.117 41.5636H175.117C175.117 54.7386 164.395 65.4255 151.16 65.4255V67.4255ZM125.202 41.5636C125.202 55.8504 136.827 67.4255 151.16 67.4255V65.4255C137.925 65.4255 127.202 54.7386 127.202 41.5636H125.202ZM151.16 15.7017C136.827 15.7017 125.202 27.2769 125.202 41.5636H127.202C127.202 28.3887 137.925 17.7017 151.16 17.7017V15.7017ZM177.117 41.5636C177.117 27.2769 165.492 15.7017 151.16 15.7017V17.7017C164.395 17.7017 175.117 28.3887 175.117 41.5636H177.117Z" fill="white" mask="url(#path-2-outside-1)"/>
        <path fill-rule="evenodd" clip-rule="evenodd" d="M171.26 60.7608C172.127 60.5794 174.438 57.6186 175.305 57.2558C176.298 57.718 181.849 64.0143 182.956 64.5351C183.552 64.2308 184.317 63.394 184.852 62.8791C185.388 62.3642 186.357 61.6035 186.538 61.0768C185.34 59.4676 180.307 55.1726 179.194 53.6337C179.507 52.715 182.824 50.4855 183.077 49.4849C181.162 49.1806 169.942 46.7581 168.732 46.7289L171.26 60.7608Z" fill="white"/>
        <path fill-rule="evenodd" clip-rule="evenodd" d="M170.927 63.326C170.729 62.9523 167.883 46.9597 167.841 45.8385C169.07 45.9038 171.017 46.325 172.293 46.5682C174.726 47.0309 184.761 48.5079 185.492 48.9113C185.127 49.9019 181.837 52.3696 181.089 53.556C181.358 54.1729 184.24 56.8364 184.911 57.4889L188.308 60.8464C188.44 60.9888 188.422 60.9651 188.542 61.1252C188.728 61.3744 188.584 61.1489 188.764 61.4871C187.733 62.3947 184.486 65.9242 183.707 66.3157L177.901 60.5854C177.35 60.0278 176.607 59.31 175.942 58.7109C174.965 59.0609 171.85 63.0294 170.927 63.326ZM168.854 46.847C168.848 48.0927 171.107 59.666 171.382 61.6354C172.461 61.3684 174.947 57.9279 175.948 57.6016C177.566 58.7406 182.029 63.9073 183.713 65.1352C184.282 64.9395 185.127 63.9429 185.696 63.3853C186.265 62.8277 187.182 62.0328 187.529 61.4159C187.002 60.2769 180.417 54.5882 179.95 53.5679C180.364 52.6662 183.611 50.2638 183.827 49.3681L168.854 46.847Z" fill="white"/>
        <path fill-rule="evenodd" clip-rule="evenodd" d="M150.006 45.5149C151.132 44.6563 152.258 43.6977 153.341 42.792C154.711 41.6393 159.28 37.9283 159.959 37.2285C161.221 35.9288 160.852 33.7704 160.852 32.0061L151.352 39.7573C150.727 40.2161 150.113 40.8512 149.488 41.3393C147.588 42.8214 148.422 44.3152 150.006 45.5149ZM142.383 49.4611L142.252 49.2435C142.049 50.8902 142.049 53.4661 143.097 54.6835C143.854 55.5598 147.135 58.2004 148.249 59.1296C149 59.7589 149.405 60.1941 150.548 60.0588C151.519 59.9471 154.104 57.4947 154.211 57.2771C154.747 57.1477 157.052 54.9893 157.451 54.4541C158.487 53.0603 158.142 50.902 158.142 49.1435C157.386 49.3435 151.543 54.9952 150.358 55.2775C149.143 55.5657 147.255 53.3309 146.278 52.6134C145.575 52.0958 142.877 49.5728 142.383 49.4611ZM158.142 41.751L149.953 48.6142C148.029 46.6029 144.163 45.0091 145.885 41.6393C146.385 40.6571 152.085 36.0817 153.723 34.7114C155.349 33.347 160.923 28.9714 161.65 27.7599C162.71 25.9839 162.478 24.8429 162.478 22.6905L151.811 31.6415C151.078 32.1766 149.81 33.2235 149.172 33.8527C146.802 36.1875 142.942 38.0459 141.864 41.4099C141.037 43.9917 142.061 46.5794 144.128 48.3084C150.215 53.3838 149.393 53.9543 152.698 51.1431C153.532 50.4315 154.652 49.6375 155.408 48.8906C156.45 47.8673 156.998 47.6497 157.642 46.1677C158.297 44.6445 158.142 43.4801 158.142 41.751Z" fill="white"/>
        <path d="M152.122 83.7853C152.17 82.1651 151.552 80.8465 149.742 80.8465C148.02 80.8465 147.296 82.2479 147.231 83.7853H152.122ZM155.286 84.7077C155.286 85.3759 155.013 85.8726 154.283 85.8726H147.237C147.237 87.9777 148.252 89.0775 150.401 89.0775C151.291 89.0775 152.176 88.9533 153.024 88.6813C153.339 88.5808 153.6 88.4921 153.808 88.4093C154.075 88.3029 154.49 88.1551 154.639 88.4921C154.769 88.8114 154.74 89.8166 154.675 90.1773C154.597 90.5912 154.372 90.6977 154.004 90.8514C153.309 91.1412 152.449 91.3126 151.713 91.425C151.214 91.5019 150.674 91.5373 150.104 91.5373C145.83 91.5373 143.919 89.3495 143.919 85.169C143.919 84.146 144.049 83.2235 144.322 82.4016C145.148 79.8531 147.172 78.5463 149.825 78.5463C150.792 78.5463 151.623 78.6882 152.306 78.972C154.526 79.8767 155.286 81.9463 155.286 84.1933V84.7077ZM139.888 92.0045C139.888 91.0584 138.921 90.8041 138.137 90.7805L135.81 90.7154C135.407 91.017 134.896 91.5019 134.789 92.0163C134.665 92.6253 134.813 93.0925 135.407 93.394C135.846 93.6187 136.463 93.7311 137.253 93.7311C137.751 93.7311 138.167 93.6838 138.499 93.5833C139.295 93.3586 139.888 92.8796 139.888 92.0045ZM139.123 82.8096C139.123 81.5561 138.393 80.8465 137.14 80.8465C135.923 80.8465 135.223 81.6861 135.223 82.8629C135.223 84.0691 135.983 84.7609 137.182 84.7609C138.036 84.7609 138.713 84.3707 139.004 83.5547C139.081 83.3182 139.123 83.0698 139.123 82.8096ZM143.313 80.0778C143.313 80.4917 143.266 80.7992 143.165 80.9943C143.07 81.1954 142.957 81.2959 142.815 81.2959H141.455C141.841 81.7157 141.99 82.2597 141.99 82.8155C141.99 85.6952 139.876 87.0079 137.188 87.0079C136.624 87.0079 135.822 86.8719 135.347 86.5585C134.944 86.9784 134.718 87.6938 135.276 88.0959C135.496 88.2556 135.805 88.3443 136.202 88.362L139.016 88.4625C140.529 88.5217 142.186 88.9592 142.874 90.4493C143.296 91.3777 143.224 92.5366 142.779 93.4413C142.186 94.6358 140.998 95.2803 139.758 95.6351C138.998 95.8539 138.119 95.9544 137.104 95.9544C135.033 95.9544 131.59 95.576 131.59 92.8264C131.59 91.5965 132.308 90.674 133.264 89.9704C132.528 89.5801 132.095 88.8764 132.095 88.0427C132.095 87.0138 132.617 86.1978 133.359 85.5178C132.617 84.7905 132.356 83.874 132.356 82.8629C132.356 80.0423 134.51 78.5877 137.17 78.5877C137.829 78.5877 138.505 78.6587 139.14 78.8242H142.809C143.301 78.836 143.313 79.7703 143.313 80.0778ZM131.804 80.3498C131.804 80.7223 131.804 81.219 131.703 81.5738C131.549 82.0468 131.169 81.8399 130.824 81.7275C130.385 81.5797 129.94 81.5147 129.495 81.698C128.705 82.0232 128.076 82.9279 127.637 83.6138V90.81C127.637 91.2003 127.085 91.2653 126.794 91.2949C126.384 91.3363 124.722 91.4072 124.449 91.0347C124.396 90.9697 124.372 90.8928 124.372 90.81V79.2736C124.372 79.0667 124.485 78.9602 124.669 78.8834C125.162 78.7119 126.402 78.6941 126.883 78.8834C127.055 78.9602 127.162 79.0785 127.162 79.2736V80.7105C127.696 79.9477 128.563 78.8834 129.513 78.6409C130.1 78.4753 130.789 78.5286 131.37 78.7296C131.643 78.8301 131.709 78.9307 131.762 79.2086C131.78 79.2973 131.792 79.4333 131.804 79.6166C131.798 79.7999 131.804 80.0423 131.804 80.3498ZM121.707 90.81C121.707 91.2003 121.155 91.2653 120.864 91.2949C120.454 91.3363 118.792 91.4072 118.519 91.0347C118.466 90.9697 118.442 90.8928 118.442 90.81V79.2973C118.442 78.907 118.994 78.8301 119.285 78.7947C119.712 78.7414 121.339 78.6764 121.63 79.0726C121.683 79.1376 121.707 79.2145 121.707 79.2973V90.81ZM112.94 86.3516C112.94 85.6538 112.726 84.9916 112.174 84.5363C111.509 83.9804 110.53 83.8858 109.699 83.8858H107.681V88.6518H110.144C110.886 88.6518 111.592 88.5394 112.186 88.0604C112.708 87.6288 112.94 87.0257 112.94 86.3516ZM112.061 79.179C112.061 78.5995 111.901 77.9964 111.444 77.6061C110.886 77.1331 110.102 77.0562 109.396 77.0562H107.681V81.3964H109.58C110.073 81.3964 110.464 81.3373 110.755 81.219C111.64 80.882 112.061 80.1014 112.061 79.179ZM116.472 86.2274C116.472 89.1721 114.364 90.7272 111.634 91.1234C111.088 91.2062 110.476 91.2476 109.8 91.2476H105.342C105.057 91.2476 104.819 91.1648 104.624 90.9933C104.428 90.8278 104.333 90.5558 104.333 90.1773V75.5957C104.333 75.2172 104.428 74.9452 104.624 74.7738C104.819 74.6082 105.057 74.5195 105.342 74.5195H109.55C111.574 74.5195 114.097 74.8447 115.077 76.8847C115.504 77.7599 115.581 78.972 115.314 79.9122C114.999 81.0061 114.204 81.8162 113.142 82.2065C115.195 82.5908 116.472 84.1401 116.472 86.2274Z" fill="white"/>
        <path d="M192.958 73.1237C193.018 73.0291 193.089 72.9464 193.178 72.8813C193.261 72.8104 193.374 72.7571 193.499 72.7157C193.623 72.6744 193.789 72.6507 193.991 72.633C194.193 72.6152 194.431 72.6093 194.715 72.6093C195.107 72.6093 195.422 72.6271 195.647 72.6625C195.879 72.698 196.039 72.7453 196.146 72.8104C196.241 72.8754 196.288 72.9523 196.277 73.041C196.265 73.1237 196.229 73.2184 196.146 73.3071L193.635 76.3109C193.564 76.3996 193.499 76.4706 193.427 76.5297C193.362 76.5829 193.273 76.6302 193.16 76.6657C193.053 76.6953 192.917 76.7248 192.751 76.7426C192.584 76.7603 192.377 76.7662 192.133 76.7662C191.831 76.7662 191.593 76.7544 191.415 76.7248C191.237 76.7012 191.112 76.6598 191.041 76.6006C190.976 76.5474 190.946 76.4706 190.958 76.3878C190.97 76.2991 191.017 76.2045 191.095 76.0862L192.958 73.1237Z" fill="white"/>
        <path d="M193.714 91.3183L192.313 95.3924C192.236 95.6112 192.028 95.7649 191.678 95.8596C191.334 95.9542 190.829 96.0015 190.164 96.0015C189.82 96.0015 189.541 95.9896 189.333 95.9601C189.126 95.9305 188.971 95.8832 188.864 95.8123C188.764 95.7413 188.704 95.6585 188.698 95.558C188.692 95.4516 188.716 95.3274 188.775 95.1855L190.319 91.3242C190.206 91.271 190.105 91.1941 190.016 91.0877C189.921 90.9754 189.856 90.863 189.814 90.7447L185.843 80.1426C185.73 79.841 185.677 79.6104 185.677 79.4508C185.677 79.2911 185.73 79.1669 185.831 79.0782C185.932 78.9896 186.11 78.9304 186.354 78.8949C186.603 78.8595 186.923 78.8417 187.333 78.8417C187.701 78.8417 187.992 78.8476 188.212 78.8595C188.431 78.8713 188.597 78.9068 188.716 78.9541C188.835 79.0073 188.93 79.0842 188.983 79.1965C189.043 79.3029 189.102 79.4567 189.167 79.6577L191.892 87.3743H191.933L194.403 79.504C194.456 79.2793 194.521 79.1315 194.604 79.0546C194.682 78.9836 194.824 78.9304 195.014 78.8949C195.204 78.8595 195.542 78.8417 196.017 78.8417C196.391 78.8417 196.706 78.8595 196.949 78.8949C197.198 78.9304 197.376 78.9896 197.495 79.0901C197.608 79.1847 197.667 79.3089 197.667 79.4685C197.667 79.6282 197.638 79.8174 197.566 80.0303L193.714 91.3183ZM181.397 83.176C180.934 82.5906 180.483 82.1412 180.056 81.8278C179.628 81.5203 179.177 81.3666 178.708 81.3666C178.287 81.3666 177.919 81.473 177.616 81.6859C177.307 81.8988 177.064 82.1767 176.874 82.5315C176.69 82.8863 176.548 83.2824 176.459 83.7141C176.364 84.1517 176.322 84.5952 176.322 85.0505C176.322 85.5353 176.364 86.0084 176.435 86.4637C176.512 86.9249 176.643 87.3329 176.821 87.6877C176.999 88.0425 177.23 88.3204 177.527 88.5392C177.818 88.758 178.192 88.8585 178.643 88.8585C178.863 88.8585 179.088 88.8289 179.296 88.7639C179.51 88.6988 179.723 88.5983 179.943 88.4446C180.163 88.2967 180.388 88.1075 180.626 87.871C180.863 87.6345 181.118 87.3447 181.391 87.0018V83.176H181.397ZM184.638 95.4516C184.638 95.5403 184.614 95.6171 184.561 95.6881C184.514 95.7531 184.424 95.8182 184.306 95.8596C184.187 95.9069 184.021 95.9423 183.813 95.9719C183.605 95.9956 183.338 96.0133 183.018 96.0133C182.697 96.0133 182.436 96.0015 182.222 95.9719C182.02 95.9483 181.848 95.9128 181.724 95.8596C181.593 95.8182 181.51 95.7531 181.463 95.6881C181.415 95.6171 181.391 95.5403 181.391 95.4516V89.976C181.083 90.2599 180.774 90.5082 180.483 90.7152C180.186 90.9281 179.895 91.0995 179.605 91.2355C179.308 91.3656 179.005 91.4661 178.69 91.5253C178.382 91.5844 178.055 91.614 177.705 91.614C176.856 91.614 176.132 91.4425 175.539 91.0995C174.945 90.7625 174.458 90.3013 174.084 89.7218C173.71 89.1482 173.431 88.4741 173.259 87.6995C173.087 86.9249 172.998 86.1148 172.998 85.2633C172.998 84.2404 173.111 83.3179 173.336 82.496C173.562 81.68 173.888 80.9823 174.322 80.4028C174.755 79.8233 175.289 79.3857 175.918 79.0723C176.554 78.7649 177.284 78.6111 178.115 78.6111C178.435 78.6111 178.738 78.6407 179.035 78.7057C179.326 78.7708 179.616 78.8831 179.913 79.0428C180.204 79.2024 180.513 79.4094 180.827 79.6636C181.142 79.9179 181.486 80.2254 181.866 80.5979V79.3384C181.866 79.2497 181.89 79.1729 181.943 79.1078C181.985 79.0428 182.068 78.9896 182.175 78.9422C182.288 78.9009 182.424 78.8654 182.596 78.8476C182.768 78.824 182.994 78.8181 183.273 78.8181C183.528 78.8181 183.748 78.824 183.926 78.8476C184.104 78.8713 184.246 78.9068 184.353 78.9422C184.454 78.9836 184.531 79.0369 184.573 79.1078C184.614 79.1729 184.638 79.2497 184.638 79.3325V95.4516ZM168.629 85.1273C168.629 84.5597 168.588 84.0334 168.493 83.5544C168.398 83.0755 168.249 82.6616 168.03 82.3068C167.81 81.952 167.525 81.6741 167.169 81.479C166.807 81.2779 166.356 81.1833 165.804 81.1833C165.317 81.1833 164.89 81.272 164.522 81.4494C164.16 81.6268 163.857 81.887 163.625 82.224C163.388 82.561 163.216 82.975 163.097 83.448C162.978 83.927 162.919 84.471 162.919 85.0859C162.919 85.6536 162.966 86.1799 163.061 86.6588C163.156 87.1378 163.317 87.5517 163.524 87.9065C163.738 88.2613 164.023 88.5333 164.391 88.7284C164.753 88.9235 165.204 89.0181 165.744 89.0181C166.243 89.0181 166.67 88.9294 167.038 88.752C167.401 88.5746 167.703 88.3204 167.935 87.9833C168.172 87.6463 168.344 87.2383 168.457 86.7593C168.57 86.2863 168.629 85.7423 168.629 85.1273ZM171.977 85.0032C171.977 85.9847 171.846 86.8776 171.585 87.6877C171.324 88.4978 170.932 89.1896 170.404 89.7809C169.876 90.3663 169.217 90.8157 168.421 91.1409C167.626 91.4602 166.694 91.6199 165.632 91.6199C164.599 91.6199 163.708 91.478 162.943 91.1941C162.183 90.9103 161.548 90.4964 161.049 89.9524C160.551 89.4084 160.177 88.7461 159.933 87.9479C159.69 87.1555 159.571 86.2567 159.571 85.2338C159.571 84.2522 159.702 83.3534 159.963 82.5433C160.23 81.7273 160.622 81.0296 161.156 80.4501C161.684 79.8706 162.343 79.4212 163.133 79.1019C163.922 78.7826 164.848 78.6229 165.911 78.6229C166.949 78.6229 167.852 78.7649 168.611 79.0428C169.371 79.3266 170 79.7346 170.499 80.2786C170.998 80.8226 171.366 81.4849 171.609 82.2831C171.852 83.0637 171.977 83.9743 171.977 85.0032Z" fill="white"/>
        <path fill-rule="evenodd" clip-rule="evenodd" d="M116.721 74.1293C116.721 74.7029 116.721 75.2823 116.733 75.8559C116.739 76.258 116.692 76.3112 116.923 76.5359C117.636 77.2277 119.215 77.4347 120.307 77.3874C121.322 77.346 122.319 77.1509 123.144 76.7724C123.928 76.4177 123.833 76.2107 123.827 75.7436C123.827 75.1759 123.803 74.6083 123.797 74.0465C123.221 74.1766 120.479 75.0695 120.241 75.0636C119.832 75.0517 117.196 74.1589 116.721 74.1293Z" fill="white"/>
        <path fill-rule="evenodd" clip-rule="evenodd" d="M115.024 73.1181C115.03 73.124 115.042 73.124 115.048 73.1358C115.054 73.1477 115.066 73.1476 115.072 73.1476C115.274 73.2482 115.392 73.2304 115.618 73.2127L119.096 72.9348C119.488 72.8993 120.153 72.781 120.45 72.9111C120.58 73.3901 120.26 73.325 119.862 73.3605C119.316 73.4019 116.989 73.5557 116.793 73.6148L120.034 74.5077C120.39 74.6082 120.657 74.4544 121.162 74.3066C121.898 74.0878 122.598 73.8809 123.329 73.668C123.608 73.5852 125.347 73.1181 125.477 73.0294C125.145 72.8993 124.545 72.7633 124.177 72.6628L121.572 71.9532C121.382 71.8941 120.361 71.5984 120.242 71.6043C119.993 71.6043 115.79 72.9289 115.024 73.1181Z" fill="white"/>
    </g>
    <path opacity="0.48" d="M51.7715 133.013H50.6406V125.408H46.4336V133.013H45.3086V124.482H51.7715V133.013ZM54.9473 129.673V133.013H53.8223V124.482H56.9688C57.9023 124.482 58.6328 124.72 59.1602 125.197C59.6914 125.673 59.957 126.304 59.957 127.089C59.957 127.918 59.6973 128.556 59.1777 129.005C58.6621 129.451 57.9219 129.673 56.957 129.673H54.9473ZM54.9473 128.754H56.9688C57.5703 128.754 58.0312 128.613 58.3516 128.332C58.6719 128.046 58.832 127.636 58.832 127.101C58.832 126.593 58.6719 126.187 58.3516 125.882C58.0312 125.578 57.5918 125.42 57.0332 125.408H54.9473V128.754ZM67.9551 129.023C67.9551 129.859 67.8145 130.589 67.5332 131.214C67.252 131.836 66.8535 132.31 66.3379 132.638C65.8223 132.966 65.2207 133.13 64.5332 133.13C63.8613 133.13 63.2656 132.966 62.7461 132.638C62.2266 132.306 61.8223 131.836 61.5332 131.226C61.248 130.613 61.1016 129.904 61.0938 129.099V128.484C61.0938 127.664 61.2363 126.939 61.5215 126.31C61.8066 125.681 62.209 125.201 62.7285 124.869C63.252 124.533 63.8496 124.365 64.5215 124.365C65.2051 124.365 65.8066 124.531 66.3262 124.863C66.8496 125.191 67.252 125.67 67.5332 126.298C67.8145 126.923 67.9551 127.652 67.9551 128.484V129.023ZM66.8359 128.472C66.8359 127.461 66.6328 126.685 66.2266 126.146C65.8203 125.603 65.252 125.332 64.5215 125.332C63.8105 125.332 63.25 125.603 62.8398 126.146C62.4336 126.685 62.2246 127.435 62.2129 128.396V129.023C62.2129 130.004 62.418 130.775 62.8281 131.337C63.2422 131.896 63.8105 132.175 64.5332 132.175C65.2598 132.175 65.8223 131.912 66.2207 131.384C66.6191 130.853 66.8242 130.093 66.8359 129.105V128.472ZM71.8574 129.181H70.8203V133.013H69.6953V124.482H70.8203V128.244H71.6992L74.6816 124.482H76.082L72.8242 128.619L76.3223 133.013H74.9453L71.8574 129.181ZM82.0645 130.787H78.4902L77.6875 133.013H76.5273L79.7852 124.482H80.7695L84.0332 133.013H82.8789L82.0645 130.787ZM78.8301 129.861H81.7305L80.2773 125.871L78.8301 129.861ZM91.0352 124.482V133.013H89.9043V129.48C89.4941 129.597 89.1211 129.679 88.7852 129.726C88.4492 129.769 88.0664 129.791 87.6367 129.791C86.6641 129.791 85.9414 129.58 85.4688 129.158C84.9961 128.736 84.7539 128.089 84.7422 127.218V124.482H85.873V127.189C85.877 127.783 86.0117 128.211 86.2773 128.472C86.5469 128.734 87 128.865 87.6367 128.865C88.3789 128.865 89.1348 128.759 89.9043 128.548V124.482H91.0352ZM97.8848 130.787H94.3105L93.5078 133.013H92.3477L95.6055 124.482H96.5898L99.8535 133.013H98.6992L97.8848 130.787ZM94.6504 129.861H97.5508L96.0977 125.871L94.6504 129.861ZM106.381 124.482H107.506V133.013H106.381V126.439L102.18 133.013H101.049V124.482H102.18V131.056L106.381 124.482ZM106.064 122.361C106.064 122.834 105.902 123.214 105.578 123.504C105.258 123.789 104.836 123.931 104.312 123.931C103.789 123.931 103.365 123.787 103.041 123.498C102.717 123.209 102.555 122.83 102.555 122.361H103.439C103.439 122.634 103.514 122.849 103.662 123.005C103.811 123.158 104.027 123.234 104.312 123.234C104.586 123.234 104.799 123.158 104.951 123.005C105.107 122.853 105.186 122.638 105.186 122.361H106.064ZM115.451 125.408H112.709V133.013H111.59V125.408H108.854V124.482H115.451V125.408ZM121.539 129.07H117.842V132.093H122.137V133.013H116.717V124.482H122.078V125.408H117.842V128.15H121.539V129.07ZM126.549 124.482H127.68V132.093H131.887V124.482H133.012V132.07H133.908L133.803 135.07H132.789V133.013H126.549V124.482ZM140.67 124.482H141.795V133.013H140.67V126.439L136.469 133.013H135.338V124.482H136.469V131.056L140.67 124.482ZM148.059 125.337H148.24C148.885 125.341 149.473 125.492 150.004 125.789C150.535 126.086 150.947 126.496 151.24 127.019C151.537 127.539 151.686 128.121 151.686 128.765C151.686 129.414 151.537 130.002 151.24 130.529C150.943 131.056 150.533 131.468 150.01 131.765C149.486 132.058 148.904 132.209 148.264 132.216H148.059V133.365H146.969V132.216H146.805C146.152 132.216 145.559 132.068 145.023 131.771C144.492 131.474 144.078 131.064 143.781 130.541C143.488 130.017 143.342 129.429 143.342 128.777C143.342 128.125 143.488 127.537 143.781 127.013C144.078 126.49 144.492 126.08 145.023 125.783C145.559 125.486 146.152 125.337 146.805 125.337H146.969V124.13H148.059V125.337ZM146.805 126.222C146.07 126.222 145.488 126.449 145.059 126.902C144.633 127.351 144.42 127.976 144.42 128.777C144.42 129.582 144.633 130.209 145.059 130.658C145.484 131.103 146.07 131.326 146.816 131.326H146.969V126.222H146.805ZM148.059 126.222V131.326H148.223C148.969 131.326 149.551 131.097 149.969 130.64C150.391 130.179 150.602 129.554 150.602 128.765C150.602 127.984 150.391 127.365 149.969 126.908C149.551 126.451 148.961 126.222 148.199 126.222H148.059ZM154.229 129.673V133.013H153.104V124.482H156.25C157.184 124.482 157.914 124.72 158.441 125.197C158.973 125.673 159.238 126.304 159.238 127.089C159.238 127.918 158.979 128.556 158.459 129.005C157.943 129.451 157.203 129.673 156.238 129.673H154.229ZM154.229 128.754H156.25C156.852 128.754 157.312 128.613 157.633 128.332C157.953 128.046 158.113 127.636 158.113 127.101C158.113 126.593 157.953 126.187 157.633 125.882C157.312 125.578 156.873 125.42 156.314 125.408H154.229V128.754ZM167.236 129.023C167.236 129.859 167.096 130.589 166.814 131.214C166.533 131.836 166.135 132.31 165.619 132.638C165.104 132.966 164.502 133.13 163.814 133.13C163.143 133.13 162.547 132.966 162.027 132.638C161.508 132.306 161.104 131.836 160.814 131.226C160.529 130.613 160.383 129.904 160.375 129.099V128.484C160.375 127.664 160.518 126.939 160.803 126.31C161.088 125.681 161.49 125.201 162.01 124.869C162.533 124.533 163.131 124.365 163.803 124.365C164.486 124.365 165.088 124.531 165.607 124.863C166.131 125.191 166.533 125.67 166.814 126.298C167.096 126.923 167.236 127.652 167.236 128.484V129.023ZM166.117 128.472C166.117 127.461 165.914 126.685 165.508 126.146C165.102 125.603 164.533 125.332 163.803 125.332C163.092 125.332 162.531 125.603 162.121 126.146C161.715 126.685 161.506 127.435 161.494 128.396V129.023C161.494 130.004 161.699 130.775 162.109 131.337C162.523 131.896 163.092 132.175 163.814 132.175C164.541 132.175 165.104 131.912 165.502 131.384C165.9 130.853 166.105 130.093 166.117 129.105V128.472ZM168.924 133.013V124.482H171.713C172.639 124.482 173.334 124.673 173.799 125.056C174.268 125.439 174.502 126.005 174.502 126.755C174.502 127.154 174.389 127.507 174.162 127.816C173.936 128.121 173.627 128.357 173.236 128.525C173.697 128.654 174.061 128.9 174.326 129.263C174.596 129.623 174.73 130.052 174.73 130.552C174.73 131.318 174.482 131.92 173.986 132.357C173.49 132.795 172.789 133.013 171.883 133.013H168.924ZM170.049 129.023V132.093H171.906C172.43 132.093 172.842 131.959 173.143 131.689C173.447 131.416 173.6 131.041 173.6 130.564C173.6 129.537 173.041 129.023 171.924 129.023H170.049ZM170.049 128.121H171.748C172.24 128.121 172.633 127.998 172.926 127.752C173.223 127.505 173.371 127.171 173.371 126.75C173.371 126.281 173.234 125.941 172.961 125.73C172.688 125.515 172.271 125.408 171.713 125.408H170.049V128.121ZM177.578 127.962H179.699C180.59 127.974 181.285 128.203 181.785 128.648C182.285 129.093 182.535 129.699 182.535 130.464C182.535 131.234 182.283 131.847 181.779 132.304C181.275 132.761 180.588 132.998 179.717 133.013H176.453V124.482H177.578V127.962ZM177.578 128.888V132.093H179.635C180.193 132.093 180.627 131.945 180.936 131.648C181.248 131.351 181.404 130.953 181.404 130.453C181.404 129.972 181.254 129.593 180.953 129.316C180.656 129.039 180.232 128.896 179.682 128.888H177.578ZM184.691 133.013H183.566V124.482H184.691V133.013ZM191.605 129.07H187.908V132.093H192.203V133.013H186.783V124.482H192.145V125.408H187.908V128.15H191.605V129.07ZM203.137 133.013H202.006V129.07H197.705V133.013H196.58V124.482H197.705V128.15H202.006V124.482H203.137V133.013ZM209.951 130.787H206.377L205.574 133.013H204.414L207.672 124.482H208.656L211.92 133.013H210.766L209.951 130.787ZM206.717 129.861H209.617L208.164 125.871L206.717 129.861ZM213.068 133.013V124.482H215.857C216.783 124.482 217.479 124.673 217.943 125.056C218.412 125.439 218.646 126.005 218.646 126.755C218.646 127.154 218.533 127.507 218.307 127.816C218.08 128.121 217.771 128.357 217.381 128.525C217.842 128.654 218.205 128.9 218.471 129.263C218.74 129.623 218.875 130.052 218.875 130.552C218.875 131.318 218.627 131.92 218.131 132.357C217.635 132.795 216.934 133.013 216.027 133.013H213.068ZM214.193 129.023V132.093H216.051C216.574 132.093 216.986 131.959 217.287 131.689C217.592 131.416 217.744 131.041 217.744 130.564C217.744 129.537 217.186 129.023 216.068 129.023H214.193ZM214.193 128.121H215.893C216.385 128.121 216.777 127.998 217.07 127.752C217.367 127.505 217.516 127.171 217.516 126.75C217.516 126.281 217.379 125.941 217.105 125.73C216.832 125.515 216.416 125.408 215.857 125.408H214.193V128.121ZM221.723 127.962H223.844C224.734 127.974 225.43 128.203 225.93 128.648C226.43 129.093 226.68 129.699 226.68 130.464C226.68 131.234 226.428 131.847 225.924 132.304C225.42 132.761 224.732 132.998 223.861 133.013H220.598V124.482H221.723V127.962ZM221.723 128.888V132.093H223.779C224.338 132.093 224.771 131.945 225.08 131.648C225.393 131.351 225.549 130.953 225.549 130.453C225.549 129.972 225.398 129.593 225.098 129.316C224.801 129.039 224.377 128.896 223.826 128.888H221.723ZM228.836 133.013H227.711V124.482H228.836V133.013ZM233.143 129.181H232.105V133.013H230.98V124.482H232.105V128.244H232.984L235.967 124.482H237.367L234.109 128.619L237.607 133.013H236.23L233.143 129.181ZM244.018 124.482H245.143V133.013H244.018V126.439L239.816 133.013H238.686V124.482H239.816V131.056L244.018 124.482ZM255.549 124.482H256.674V133.013H255.549V126.439L251.348 133.013H250.217V124.482H251.348V131.056L255.549 124.482ZM93.1914 146.023C93.1914 146.859 93.0508 147.589 92.7695 148.214C92.4883 148.836 92.0898 149.31 91.5742 149.638C91.0586 149.966 90.457 150.13 89.7695 150.13C89.0977 150.13 88.502 149.966 87.9824 149.638C87.4629 149.306 87.0586 148.836 86.7695 148.226C86.4844 147.613 86.3379 146.904 86.3301 146.099V145.484C86.3301 144.664 86.4727 143.939 86.7578 143.31C87.043 142.681 87.4453 142.201 87.9648 141.869C88.4883 141.533 89.0859 141.365 89.7578 141.365C90.4414 141.365 91.043 141.531 91.5625 141.863C92.0859 142.191 92.4883 142.67 92.7695 143.298C93.0508 143.923 93.1914 144.652 93.1914 145.484V146.023ZM92.0723 145.472C92.0723 144.461 91.8691 143.685 91.4629 143.146C91.0566 142.603 90.4883 142.332 89.7578 142.332C89.0469 142.332 88.4863 142.603 88.0762 143.146C87.6699 143.685 87.4609 144.435 87.4492 145.396V146.023C87.4492 147.004 87.6543 147.775 88.0645 148.337C88.4785 148.896 89.0469 149.175 89.7695 149.175C90.4961 149.175 91.0586 148.912 91.457 148.384C91.8555 147.853 92.0605 147.093 92.0723 146.105V145.472ZM100.082 142.408H95.9688V144.962H98.0898C98.9805 144.974 99.6758 145.203 100.176 145.648C100.676 146.093 100.926 146.699 100.926 147.464C100.926 148.234 100.674 148.847 100.17 149.304C99.666 149.761 98.9785 149.998 98.1074 150.013H94.8379V141.482H100.082V142.408ZM95.9688 145.888V149.093H98.0254C98.584 149.093 99.0176 148.945 99.3262 148.648C99.6387 148.351 99.7949 147.953 99.7949 147.453C99.7949 146.972 99.6445 146.593 99.3438 146.316C99.0469 146.039 98.623 145.896 98.0723 145.888H95.9688ZM105.273 146.433L107.236 141.482H108.543L105.525 148.589C105.322 149.043 105.133 149.365 104.957 149.556C104.781 149.744 104.574 149.888 104.336 149.99C104.102 150.087 103.807 150.136 103.451 150.136C103.143 150.136 102.945 150.119 102.859 150.084L102.895 149.193L103.428 149.216C103.838 149.216 104.143 149.019 104.342 148.625L104.488 148.32L104.711 147.798L101.805 141.482H103.064L105.273 146.433ZM116.072 141.482V150.013H114.941V146.48C114.531 146.597 114.158 146.679 113.822 146.726C113.486 146.769 113.104 146.791 112.674 146.791C111.701 146.791 110.979 146.58 110.506 146.158C110.033 145.736 109.791 145.089 109.779 144.218V141.482H110.91V144.189C110.914 144.783 111.049 145.211 111.314 145.472C111.584 145.734 112.037 145.865 112.674 145.865C113.416 145.865 114.172 145.759 114.941 145.548V141.482H116.072ZM122.922 147.787H119.348L118.545 150.013H117.385L120.643 141.482H121.627L124.891 150.013H123.736L122.922 147.787ZM119.688 146.861H122.588L121.135 142.871L119.688 146.861ZM131.418 141.482H132.543V150.013H131.418V143.439L127.217 150.013H126.086V141.482H127.217V148.056L131.418 141.482ZM131.102 139.361C131.102 139.834 130.939 140.214 130.615 140.504C130.295 140.789 129.873 140.931 129.35 140.931C128.826 140.931 128.402 140.787 128.078 140.498C127.754 140.209 127.592 139.83 127.592 139.361H128.477C128.477 139.634 128.551 139.849 128.699 140.005C128.848 140.158 129.064 140.234 129.35 140.234C129.623 140.234 129.836 140.158 129.988 140.005C130.145 139.853 130.223 139.638 130.223 139.361H131.102ZM140.488 142.408H137.746V150.013H136.627V142.408H133.891V141.482H140.488V142.408ZM146.576 146.07H142.879V149.093H147.174V150.013H141.754V141.482H147.115V142.408H142.879V145.15H146.576V146.07ZM154.85 147.306C154.744 148.209 154.41 148.906 153.848 149.398C153.289 149.886 152.545 150.13 151.615 150.13C150.607 150.13 149.799 149.769 149.189 149.046C148.584 148.324 148.281 147.357 148.281 146.146V145.326C148.281 144.533 148.422 143.836 148.703 143.234C148.988 142.632 149.391 142.171 149.91 141.851C150.43 141.527 151.031 141.365 151.715 141.365C152.621 141.365 153.348 141.619 153.895 142.127C154.441 142.63 154.76 143.33 154.85 144.224H153.719C153.621 143.545 153.408 143.052 153.08 142.748C152.756 142.443 152.301 142.291 151.715 142.291C150.996 142.291 150.432 142.556 150.021 143.087C149.615 143.619 149.412 144.375 149.412 145.355V146.181C149.412 147.107 149.605 147.843 149.992 148.39C150.379 148.937 150.92 149.211 151.615 149.211C152.24 149.211 152.719 149.07 153.051 148.789C153.387 148.504 153.609 148.009 153.719 147.306H154.85ZM157.48 144.962H159.602C160.492 144.974 161.188 145.203 161.688 145.648C162.188 146.093 162.438 146.699 162.438 147.464C162.438 148.234 162.186 148.847 161.682 149.304C161.178 149.761 160.49 149.998 159.619 150.013H156.355V141.482H157.48V144.962ZM157.48 145.888V149.093H159.537C160.096 149.093 160.529 148.945 160.838 148.648C161.15 148.351 161.307 147.953 161.307 147.453C161.307 146.972 161.156 146.593 160.855 146.316C160.559 146.039 160.135 145.896 159.584 145.888H157.48ZM173.465 146.023C173.465 146.859 173.324 147.589 173.043 148.214C172.762 148.836 172.363 149.31 171.848 149.638C171.332 149.966 170.73 150.13 170.043 150.13C169.371 150.13 168.775 149.966 168.256 149.638C167.736 149.306 167.332 148.836 167.043 148.226C166.758 147.613 166.611 146.904 166.604 146.099V145.484C166.604 144.664 166.746 143.939 167.031 143.31C167.316 142.681 167.719 142.201 168.238 141.869C168.762 141.533 169.359 141.365 170.031 141.365C170.715 141.365 171.316 141.531 171.836 141.863C172.359 142.191 172.762 142.67 173.043 143.298C173.324 143.923 173.465 144.652 173.465 145.484V146.023ZM172.346 145.472C172.346 144.461 172.143 143.685 171.736 143.146C171.33 142.603 170.762 142.332 170.031 142.332C169.32 142.332 168.76 142.603 168.35 143.146C167.943 143.685 167.734 144.435 167.723 145.396V146.023C167.723 147.004 167.928 147.775 168.338 148.337C168.752 148.896 169.32 149.175 170.043 149.175C170.77 149.175 171.332 148.912 171.73 148.384C172.129 147.853 172.334 147.093 172.346 146.105V145.472ZM181.709 150.013H180.578V146.07H176.277V150.013H175.152V141.482H176.277V145.15H180.578V141.482H181.709V150.013ZM190.264 141.482V150.013H189.139V142.408H186.08L185.928 145.789C185.869 146.921 185.752 147.773 185.576 148.343C185.404 148.914 185.15 149.334 184.814 149.603C184.479 149.869 184.029 150.005 183.467 150.013H183.098V149.093L183.332 149.082C183.695 149.054 183.975 148.937 184.17 148.73C184.365 148.519 184.514 148.185 184.615 147.728C184.717 147.271 184.789 146.568 184.832 145.619L185.008 141.482H190.264ZM197.125 147.787H193.551L192.748 150.013H191.588L194.846 141.482H195.83L199.094 150.013H197.939L197.125 147.787ZM193.891 146.861H196.791L195.338 142.871L193.891 146.861ZM205.621 141.482H206.746V150.013H205.621V143.439L201.42 150.013H200.289V141.482H201.42V148.056L205.621 141.482ZM205.305 139.361C205.305 139.834 205.143 140.214 204.818 140.504C204.498 140.789 204.076 140.931 203.553 140.931C203.029 140.931 202.605 140.787 202.281 140.498C201.957 140.209 201.795 139.83 201.795 139.361H202.68C202.68 139.634 202.754 139.849 202.902 140.005C203.051 140.158 203.268 140.234 203.553 140.234C203.826 140.234 204.039 140.158 204.191 140.005C204.348 139.853 204.426 139.638 204.426 139.361H205.305ZM215.354 150.013H214.223V146.07H209.922V150.013H208.797V141.482H209.922V145.15H214.223V141.482H215.354V150.013Z" fill="white"/>
</svg>
