<svg width="184" height="147" viewBox="0 0 184 147" fill="none" xmlns="http://www.w3.org/2000/svg">
    <path d="M87.5334 9.26495L87.7638 0.000183105L10.1381 60.8617C-2.69724 70.9253 -2.71519 89.1711 10.0993 99.2568L31.2522 115.907C33.8701 117.968 37.7268 117.974 40.3507 115.919L60.2021 100.367C66.0783 95.7636 69.4652 89.0141 69.4652 81.9092V74.6555L35.4828 101.298L21.0737 89.9562C14.4735 84.7632 14.4854 75.3662 21.0946 70.1843L79.8621 24.1056C84.5984 20.392 87.3898 14.9924 87.5334 9.26495Z" fill="#DD9900"/>
    <path d="M80.6346 48.0208C80.6346 51.8033 78.8335 55.3984 75.7039 57.8503L35.8065 88.7025L35.5432 88.9863L32.2401 86.3856C28.0335 83.0742 28.0394 77.0823 32.2521 73.7792L80.6316 36.2766V48.0208H80.6346Z" fill="#DD9900"/>
    <path d="M31.2493 125.993L3.24786 103.951V115.026C3.24786 119.745 5.49181 124.227 9.38431 127.293L30.3817 143.82C33.5023 146.275 38.0949 146.28 41.2215 143.828L63.3019 126.516C67.2124 123.45 69.4653 118.96 69.4653 114.23V103.174L40.3508 126.001C37.7269 128.059 33.8703 128.056 31.2493 125.993Z" fill="#DD9900"/>
    <path d="M87.7641 0C87.7641 0 84.9128 12.78 42.9449 44.0758L47.4328 49.5333L77.3432 26.0835C77.3432 26.0835 87.1687 19.6563 87.4469 10.6477C87.7222 1.63642 87.7641 0 87.7641 0Z" fill="url(#paint0_linear)"/>
    <path d="M20.6281 89.5925C20.1943 89.1848 9.2139 78.8401 23.5423 68.264L19.578 63.2363C11.2843 71.2834 4.69908 81.9229 14.9494 93.0196L15.2038 93.207L20.6281 89.5925Z" fill="url(#paint1_linear)"/>
    <path d="M80.6341 36.2738C80.6341 36.2738 78.459 50.0208 64.9893 58.7263V66.1343L75.7034 57.8475C75.7034 57.8475 81.0739 54.1174 80.6341 46.4918C80.661 40.4062 80.6341 36.2738 80.6341 36.2738Z" fill="url(#paint2_linear)"/>
    <path d="M35.8061 88.7027C35.8061 88.7027 32.3234 83.4243 36.3536 79.6996C40.3867 75.9722 56.0525 65.7377 56.0525 65.7377L57.8536 71.6773L35.8061 88.7027Z" fill="url(#paint3_linear)"/>
    <path d="M45.4132 105.877C67.7539 92.5952 69.4384 74.6745 69.4384 74.6745C69.4384 74.6745 69.4653 75.512 69.4384 81.6031C69.8782 89.2287 64.5077 96.2509 64.5077 96.2509C64.5077 96.2509 61.0311 100.182 54.0688 105.171C47.1066 110.16 46.957 111.169 47.1066 110.163C47.2532 109.152 45.4132 105.877 45.4132 105.877Z" fill="url(#paint4_linear)"/>
    <path d="M41.461 136.426C40.001 137.575 38.1549 138.084 36.3538 137.955C34.5527 138.084 32.7067 137.577 31.2466 136.426C31.2466 136.426 7.90953 124.42 3.24511 103.951V115.026C3.24511 119.745 5.48905 124.227 9.38455 127.293L30.3819 143.82C32.0903 145.167 34.2445 145.773 36.3568 145.647C38.4691 145.773 40.6203 145.167 42.3317 143.82L63.3291 127.293C67.2246 124.227 69.4685 119.745 69.4685 115.026V103.174C66.2073 122.478 41.461 136.426 41.461 136.426Z" fill="url(#paint5_linear)"/>
    <path d="M91.9549 134.967H83.176V143.111H92.9597V145.558H80.2607V122.972H92.4584V125.419H83.176V132.556H91.9549V134.967Z" fill="white"/>
    <path d="M96.6465 121.765H99.5948V145.556H96.6465V121.765Z" fill="white"/>
    <path d="M114.605 123.06V136.43C114.605 141.488 116.849 143.634 119.866 143.634C123.217 143.634 125.362 141.422 125.362 136.43V123.06H128.311V136.229C128.311 143.166 124.659 146.013 119.767 146.013C115.143 146.013 111.659 143.366 111.659 136.364V123.06H114.605Z" fill="white"/>
    <path d="M133.337 133.727C133.337 132.052 133.304 130.678 133.203 129.337H135.784L135.918 131.951H136.019C136.923 130.41 138.431 128.97 141.113 128.97C143.325 128.97 145 130.311 145.704 132.219H145.77C146.273 131.313 146.908 130.61 147.579 130.108C148.551 129.372 149.624 128.97 151.165 128.97C153.308 128.97 156.492 130.377 156.492 136.007V145.558H153.61V136.377C153.61 133.261 152.471 131.384 150.092 131.384C148.417 131.384 147.111 132.624 146.607 134.064C146.473 134.466 146.372 135.002 146.372 135.539V145.558H143.49V135.84C143.49 133.259 142.351 131.384 140.106 131.384C138.264 131.384 136.923 132.859 136.454 134.332C136.287 134.767 136.219 135.271 136.219 135.772V145.556H133.337V133.727Z" fill="white"/>
    <path d="M164.567 124.781C164.6 125.786 163.864 126.591 162.69 126.591C161.652 126.591 160.913 125.786 160.913 124.781C160.913 123.741 161.685 122.939 162.756 122.939C163.864 122.939 164.567 123.741 164.567 124.781ZM161.282 145.556V129.337H164.231V145.556H161.282Z" fill="white"/>
    <path d="M172.676 124.68V129.339H176.897V131.584H172.676V140.33C172.676 142.339 173.245 143.48 174.887 143.48C175.659 143.48 176.229 143.379 176.596 143.28L176.73 145.492C176.16 145.727 175.255 145.894 174.116 145.894C172.742 145.894 171.636 145.459 170.932 144.654C170.095 143.784 169.793 142.341 169.793 140.433V131.586H167.28V129.341H169.793V125.454L172.676 124.68Z" fill="white"/>
    <path d="M183.499 124.781C183.532 125.786 182.795 126.591 181.621 126.591C180.584 126.591 179.845 125.786 179.845 124.781C179.845 123.741 180.617 122.939 181.687 122.939C182.795 122.939 183.499 123.741 183.499 124.781ZM180.214 145.556V129.337H183.163V145.556H180.214Z" fill="white"/>
    <path d="M122.436 117.722H120.158L118.496 121.884H120.158L122.436 117.722Z" fill="white"/>
    <defs>
        <linearGradient id="paint0_linear" x1="45.276" y1="47.5482" x2="88.4634" y2="0.645089" gradientUnits="userSpaceOnUse">
            <stop stop-color="#DD9900"/>
            <stop offset="1" stop-color="#8E6B14"/>
        </linearGradient>
        <linearGradient id="paint1_linear" x1="16.6323" y1="93.2059" x2="16.6323" y2="63.2364" gradientUnits="userSpaceOnUse">
            <stop stop-color="#DD9900"/>
            <stop offset="0.0937" stop-color="#D59402"/>
            <stop offset="0.2401" stop-color="#BF8708"/>
            <stop offset="0.4201" stop-color="#9B7211"/>
            <stop offset="0.4799" stop-color="#8D6A14"/>
            <stop offset="0.4885" stop-color="#8F6B14"/>
            <stop offset="0.7153" stop-color="#B98409"/>
            <stop offset="0.8931" stop-color="#D39302"/>
            <stop offset="0.9987" stop-color="#DD9900"/>
        </linearGradient>
        <linearGradient id="paint2_linear" x1="64.9889" y1="51.2057" x2="80.6602" y2="51.2057" gradientUnits="userSpaceOnUse">
            <stop stop-color="#DD9900"/>
            <stop offset="1" stop-color="#8E6B14"/>
        </linearGradient>
        <linearGradient id="paint3_linear" x1="32.808" y1="82.854" x2="58.2089" y2="69.9903" gradientUnits="userSpaceOnUse">
            <stop stop-color="#8E6B14"/>
            <stop offset="1" stop-color="#DD9900"/>
        </linearGradient>
        <linearGradient id="paint4_linear" x1="43.4876" y1="107.18" x2="71.5927" y2="76.657" gradientUnits="userSpaceOnUse">
            <stop stop-color="#DD9900"/>
            <stop offset="1" stop-color="#8E6B14"/>
        </linearGradient>
        <linearGradient id="paint5_linear" x1="3.24771" y1="124.419" x2="69.4643" y2="124.419" gradientUnits="userSpaceOnUse">
            <stop stop-color="#8E6B14"/>
            <stop offset="1" stop-color="#DD9900"/>
        </linearGradient>
    </defs>
</svg>
