<svg width="27" height="44" viewBox="0 0 27 44" fill="none" xmlns="http://www.w3.org/2000/svg">
    <path d="M26.2897 2.79874L26.3593 0.000183105L2.91134 18.3843C-0.965775 21.4242 -0.971195 26.9356 2.8996 29.9821L9.28915 35.0117C10.0799 35.6341 11.2449 35.6358 12.0375 35.015L18.0339 30.3175C19.8089 28.9269 20.8319 26.8881 20.8319 24.742V22.5509L10.5671 30.5987L6.21457 27.1727C4.22089 25.6041 4.2245 22.7656 6.2209 21.2003L23.9725 7.28159C25.4031 6.15984 26.2463 4.5288 26.2897 2.79874Z" fill="white"/>
    <path d="M24.2058 14.5054C24.2058 15.6479 23.6618 16.7339 22.7164 17.4745L10.6648 26.7939L10.5853 26.8796L9.58757 26.094C8.31688 25.0938 8.31869 23.2838 9.59118 22.2861L24.2049 10.9579V14.5054H24.2058Z" fill="white"/>
    <path d="M9.28828 38.058L0.830017 31.3999V34.7452C0.830017 36.1707 1.50784 37.5246 2.68362 38.4508L9.02619 43.443C9.96881 44.1844 11.3561 44.1861 12.3005 43.4455L18.9702 38.2162C20.1514 37.29 20.832 35.9335 20.832 34.5047V31.1653L12.0375 38.0605C11.2449 38.6822 10.08 38.6813 9.28828 38.058Z" fill="white"/>
    <path d="M26.3594 0C26.3594 0 25.4981 3.86039 12.8211 13.3137L14.1767 14.9623L23.2116 7.8789C23.2116 7.8789 26.1795 5.93747 26.2636 3.2163C26.3467 0.494303 26.3594 0 26.3594 0Z" fill="white"/>
    <path d="M6.07998 27.0627C5.94894 26.9396 2.63215 23.8148 6.96024 20.6201L5.76276 19.1014C3.25755 21.5322 1.26838 24.746 4.36465 28.0979L4.44147 28.1545L6.07998 27.0627Z" fill="white"/>
    <path d="M24.2057 10.957C24.2057 10.957 23.5486 15.1095 19.4799 17.7391V19.9768L22.7163 17.4737C22.7163 17.4737 24.3385 16.3469 24.2057 14.0435C24.2138 12.2053 24.2057 10.957 24.2057 10.957Z" fill="white"/>
    <path d="M10.6647 26.794C10.6647 26.794 9.61272 25.1995 10.8301 24.0744C12.0483 22.9485 16.7804 19.8571 16.7804 19.8571L17.3245 21.6512L10.6647 26.794Z" fill="white"/>
    <path d="M13.5667 31.9816C20.3151 27.9697 20.8239 22.5565 20.8239 22.5565C20.8239 22.5565 20.832 22.8095 20.8239 24.6494C20.9567 26.9528 19.3345 29.074 19.3345 29.074C19.3345 29.074 18.2843 30.2615 16.1813 31.7685C14.0782 33.2756 14.033 33.5801 14.0782 33.2764C14.1225 32.971 13.5667 31.9816 13.5667 31.9816Z" fill="white"/>
    <path d="M12.3729 41.2094C11.9319 41.5564 11.3743 41.7104 10.8302 41.6713C10.2861 41.7104 9.72851 41.5573 9.28748 41.2094C9.28748 41.2094 2.23818 37.5829 0.829224 31.3999V34.7452C0.829224 36.1707 1.50704 37.5246 2.68373 38.4508L9.02629 43.443C9.54234 43.8499 10.193 44.033 10.8311 43.9947C11.4691 44.033 12.119 43.8499 12.6359 43.443L18.9785 38.4508C20.1552 37.5246 20.833 36.1707 20.833 34.7452V31.1653C19.8479 36.9962 12.3729 41.2094 12.3729 41.2094Z" fill="white"/>
</svg>
