<svg width="60" height="44" viewBox="0 0 60 44" fill="none" xmlns="http://www.w3.org/2000/svg">
    <path d="M36.2586 5.0307C35.6868 5.17325 35.0716 5.32974 34.544 5.51484C33.7819 5.70807 33.0197 5.90981 32.2575 6.11156C30.6022 6.54971 28.9467 6.9879 27.2914 7.33901C24.7419 7.89483 22.2803 8.4074 19.6868 8.87796C16.3901 9.47658 11.0713 10.246 7.59892 10.5169C7.30542 10.5422 6.97703 10.5789 6.6487 10.6155C6.23951 10.6612 5.8304 10.7069 5.48897 10.7305L3.37902 10.8589C3.55487 10.6879 3.86264 10.4598 4.12635 10.2889C5.43263 9.3637 6.20121 8.88333 7.27319 8.21334C7.5719 8.02664 7.89417 7.82522 8.2582 7.59535C8.60982 7.39608 8.82943 7.26767 9.13709 7.08245C10.5878 6.28422 12.2142 5.42936 13.7523 4.78862C13.7975 4.76875 13.8547 4.74344 13.9221 4.7136C14.7743 4.33649 17.2607 3.2362 17.7088 3.24912C17.7385 3.22508 17.7532 3.21242 17.763 3.20399C17.7821 3.18745 17.7824 3.18724 17.8407 3.14936L20.0824 2.40865C23.3352 1.33969 28.3902 0.441693 31.8189 0.213663C31.9372 0.204826 32.0669 0.195386 32.2032 0.185463C32.725 0.147474 33.3438 0.10242 33.7969 0.0570854C34.1516 0.0263794 34.5699 0.0245436 34.9764 0.022759C35.3257 0.0212258 35.6664 0.0197305 35.9508 0L38.0165 0.0570854C38.3923 0.0570854 38.7554 0.0815325 39.1261 0.106485C39.4495 0.128253 39.7786 0.150405 40.1268 0.157046C40.3903 0.170989 40.83 0.213663 41.0936 0.242306C41.3136 0.272983 41.5337 0.288959 41.7696 0.306085C41.8638 0.31292 41.9604 0.319938 42.0606 0.328146C42.5443 0.384853 47.2917 0.98348 47.5991 1.26846C47.0909 1.44754 46.5604 1.64459 46.0301 1.8416C45.5055 2.03646 44.981 2.23129 44.4782 2.40865C43.4354 2.74649 42.5018 3.06093 41.4779 3.40579C41.38 3.43876 41.2813 3.472 41.1816 3.50557L36.2586 5.0307Z" fill="#FEFEFE"/>
    <path d="M34.0169 7.92336L38.2802 6.71185L38.5002 6.65501C38.5441 6.62637 38.5884 6.61201 38.6321 6.59795C38.8079 6.54078 38.852 6.52663 39.0276 6.48394L41.1816 5.79996C41.9017 5.55094 42.6042 5.3227 43.2999 5.0967C44.5154 4.70181 45.7099 4.31375 46.9402 3.83358L49.797 2.79315C49.797 5.44364 49.6654 7.26767 49.0936 9.71867C48.9628 10.271 48.8075 10.7361 48.6458 11.2203C48.5905 11.3859 48.5344 11.5537 48.4783 11.7281C48.4302 11.8218 48.3953 11.9411 48.359 12.065C48.3291 12.1673 48.2983 12.2727 48.2584 12.3694C48.2371 12.4314 48.2185 12.4894 48.2005 12.5451C48.1442 12.7197 48.0947 12.8732 47.9948 13.0677C47.9246 13.2329 47.8543 13.4117 47.7841 13.5905C47.6786 13.8591 47.5731 14.1278 47.4675 14.3501L46.8521 15.5756C46.2417 16.7628 45.6643 17.5744 44.9764 18.5412C44.8717 18.6884 44.7644 18.8392 44.6541 18.9954C44.5746 19.1072 44.4952 19.2034 44.4158 19.2996C44.3634 19.363 44.3111 19.4264 44.2586 19.4944C43.8629 20.093 41.6213 22.4868 41.0936 22.8576C40.8972 22.9851 40.5298 22.8435 40.1371 22.6922C40.0028 22.6404 39.8656 22.5875 39.7312 22.5439C38.5002 22.1448 36.5658 21.5748 35.3794 21.2901L35.2628 21.2622C32.4245 20.5823 28.8783 19.7329 26.0166 19.466C25.6268 19.4306 25.2314 19.388 24.8345 19.3453C24.1124 19.2676 23.385 19.1893 22.6758 19.1526C19.2913 19.0098 15.5987 19.0384 12.5219 20.0787L11.2474 20.6344C10.8955 20.8339 10.412 21.1475 10.148 21.4183C9.84044 21.6746 9.53313 22.0594 9.31328 22.4442C9.08497 22.9518 9.07436 23.114 9.04824 23.5131C9.03916 23.652 9.02819 23.8196 9.00553 24.0403C8.17004 23.6556 5.4451 20.8768 4.74187 20.0075C3.29108 18.2404 2.41208 16.9578 1.40107 14.9059C1.26918 14.635 0.697705 13.4524 0.653748 13.2244C1.4889 13.2244 2.54398 13.1815 3.24735 13.0818L5.79663 12.8965C15.9945 11.8848 22.1043 10.8731 31.775 8.50771C32.1693 8.4152 32.5309 8.31576 32.8925 8.21633C33.2563 8.11632 33.62 8.01631 34.0169 7.92336Z" fill="#FEFEFE"/>
    <path d="M12.0814 30.1404H10.8007V25.8816H12.008L13.929 28.1327V25.8816H15.2097V30.1404H14.0758L12.0814 27.8042V30.1404Z" fill="#FEFEFE"/>
    <path d="M20.3259 28.2422C20.3259 29.6172 19.4654 30.2195 18.138 30.2195C16.8106 30.2195 15.9768 29.605 15.9768 28.2726V25.8816H17.2909V28.2483C17.2909 28.8628 17.631 29.1548 18.1513 29.1548C18.6716 29.1548 19.0118 28.8749 19.0118 28.2787V25.8816H20.3259V28.2422Z" fill="#FEFEFE"/>
    <path fill-rule="evenodd" clip-rule="evenodd" d="M22.387 30.1404H21.093V25.8816H23.3008C24.0145 25.8816 24.5081 26.0519 24.8216 26.3379C25.0951 26.5873 25.2352 26.9159 25.2352 27.3479C25.2352 27.9988 24.855 28.4308 24.2747 28.6559L25.3886 30.1404H23.8945L22.954 28.8506H22.387V30.1404ZM22.387 26.9037V27.9258H23.2408C23.681 27.9258 23.9345 27.7311 23.9345 27.4087C23.9345 27.0741 23.6677 26.9037 23.2341 26.9037H22.387Z" fill="#FEFEFE"/>
    <path d="M29.6109 28.8263C29.6109 29.6963 28.8572 30.2135 27.7232 30.2135C26.8961 30.2135 26.109 29.9762 25.5354 29.5077L26.2557 28.7229C26.716 29.0575 27.2296 29.2339 27.7699 29.2339C28.1168 29.2339 28.3035 29.1244 28.3035 28.9297C28.3035 28.7533 28.1501 28.6559 27.5164 28.5221C26.5225 28.3152 25.7555 28.0597 25.7555 27.1714C25.7555 26.3805 26.4425 25.8086 27.5631 25.8086C28.3569 25.8086 28.9772 26.0033 29.4842 26.3744L28.8371 27.2079C28.4103 26.9341 27.9433 26.7881 27.5298 26.7881C27.2163 26.7881 27.0629 26.9098 27.0629 27.0741C27.0629 27.2688 27.223 27.3539 27.87 27.4878C28.9439 27.7007 29.6109 28.0171 29.6109 28.8263Z" fill="#FEFEFE"/>
    <path d="M34.5269 28.2422C34.5269 29.6172 33.6664 30.2195 32.3391 30.2195C31.0117 30.2195 30.1779 29.605 30.1779 28.2726V25.8816H31.4919V28.2483C31.4919 28.8628 31.8321 29.1548 32.3524 29.1548C32.8727 29.1548 33.2129 28.8749 33.2129 28.2787V25.8816H34.5269V28.2422Z" fill="#FEFEFE"/>
    <path d="M38.8493 30.1404H35.294V25.8816H36.588V29.1061H38.8493V30.1404Z" fill="#FEFEFE"/>
    <path d="M41.1705 30.1404H39.8765V26.9159H38.4757V25.8816H42.5713V26.9159H41.1705V30.1404Z" fill="#FEFEFE"/>
    <path fill-rule="evenodd" clip-rule="evenodd" d="M43.5251 30.1404H42.1644L44.1522 25.8512H45.3995L47.3873 30.1404H45.9998L45.6597 29.3799H43.8587L43.5251 30.1404ZM44.7658 27.2505L44.2389 28.4612H45.2861L44.7658 27.2505Z" fill="#FEFEFE"/>
    <path d="M49.1215 30.1404H47.8408V25.8816H49.0482L50.9692 28.1327V25.8816H52.2499V30.1404H51.1159L49.1215 27.8042V30.1404Z" fill="#FEFEFE"/>
    <path d="M12.0814 37.0276H10.8007V32.7688H12.008L13.929 35.0199V32.7688H15.2097V37.0276H14.0758L12.0814 34.6913V37.0276Z" fill="#FEFEFE"/>
    <path fill-rule="evenodd" clip-rule="evenodd" d="M17.0241 37.0276H15.6633L17.6511 32.7384H18.8984L20.8862 37.0276H19.4987L19.1586 36.2671H17.3576L17.0241 37.0276ZM18.2647 34.1377L17.7378 35.3484H18.785L18.2647 34.1377Z" fill="#FEFEFE"/>
    <path d="M25.3219 37.0276H21.193V36.1698L23.5343 33.7666H21.273V32.7688H25.3219V33.6266L22.9806 36.0298H25.3219V37.0276Z" fill="#FEFEFE"/>
    <path fill-rule="evenodd" clip-rule="evenodd" d="M26.9828 37.0276H25.6221L27.6098 32.7384H28.8572L30.8449 37.0276H29.4575L29.1173 36.2671H27.3163L26.9828 37.0276ZM28.2235 34.1377L27.6965 35.3484H28.7438L28.2235 34.1377Z" fill="#FEFEFE"/>
    <path fill-rule="evenodd" clip-rule="evenodd" d="M32.5925 37.0276H31.2985V32.7688H33.5064C34.2201 32.7688 34.7137 32.9391 35.0272 33.2251C35.3007 33.4745 35.4408 33.8031 35.4408 34.235C35.4408 34.886 35.0606 35.318 34.4802 35.5431L35.5942 37.0276H34.1L33.1595 35.7378H32.5925V37.0276ZM32.5925 33.7909V34.813H33.4463C33.8866 34.813 34.14 34.6183 34.14 34.2959C34.14 33.9613 33.8732 33.7909 33.4397 33.7909H32.5925Z" fill="#FEFEFE"/>
    <path fill-rule="evenodd" clip-rule="evenodd" d="M38.5024 37.0276H36.0945V32.7688H38.4891C39.076 32.7688 39.4896 32.9026 39.7631 33.1521C39.9499 33.3224 40.0633 33.5475 40.0633 33.8517C40.0633 34.3446 39.7564 34.6366 39.3429 34.8009C39.9098 34.9712 40.2701 35.2633 40.2701 35.8534C40.2701 36.5835 39.6164 37.0276 38.5024 37.0276ZM37.3551 35.2937V36.0785H38.3557C38.7492 36.0785 38.976 35.9386 38.976 35.677C38.976 35.4458 38.7759 35.2937 38.3423 35.2937H37.3551ZM37.3551 33.7179V34.4662H38.1689C38.5625 34.4662 38.7826 34.3446 38.7826 34.0829C38.7826 33.8517 38.5825 33.7179 38.1956 33.7179H37.3551Z" fill="#FEFEFE"/>
    <path fill-rule="evenodd" clip-rule="evenodd" d="M41.8509 37.0276H40.4902L42.4779 32.7384H43.7253L45.713 37.0276H44.3256L43.9854 36.2671H42.1844L41.8509 37.0276ZM43.0916 34.1377L42.5646 35.3484H43.6119L43.0916 34.1377Z" fill="#FEFEFE"/>
    <path d="M48.081 37.0276H46.7803V35.4336L45.006 32.7688H46.4801L47.4406 34.3202L48.4078 32.7688H49.8553L48.081 35.4153V37.0276Z" fill="#FEFEFE"/>
    <path d="M54.0442 37.0276H50.2555V32.7688H54.0109V33.7727H51.5362V34.4176H53.7774V35.3484H51.5362V36.0238H54.0442V37.0276Z" fill="#FEFEFE"/>
    <path d="M57.426 37.0581H56.2254L54.331 32.7688H55.7785L56.8391 35.464L57.8997 32.7688H59.3204L57.426 37.0581Z" fill="#FEFEFE"/>
    <path d="M12.0947 43.9148H10.8007V39.656H14.536V40.6902H12.0947V41.4143H14.3026V42.3938H12.0947V43.9148Z" fill="#FEFEFE"/>
    <path fill-rule="evenodd" clip-rule="evenodd" d="M19.9923 41.7854C19.9923 43.0083 18.9117 44 17.471 44C16.0302 44 14.9629 43.0205 14.9629 41.7854C14.9629 40.5625 16.0435 39.5708 17.4843 39.5708C18.9251 39.5708 19.9923 40.5503 19.9923 41.7854ZM16.2903 41.7854C16.2903 42.3999 16.7773 42.9353 17.4843 42.9353C18.198 42.9353 18.6716 42.4121 18.6716 41.7854C18.6716 41.1709 18.1847 40.6355 17.471 40.6355C16.7639 40.6355 16.2903 41.1587 16.2903 41.7854Z" fill="#FEFEFE"/>
    <path d="M24.955 42.0166C24.955 43.3916 24.0946 43.9939 22.7672 43.9939C21.4398 43.9939 20.606 43.3794 20.606 42.047V39.656H21.9201V42.0227C21.9201 42.6372 22.2602 42.9292 22.7805 42.9292C23.3008 42.9292 23.641 42.6493 23.641 42.0531V39.656H24.955V42.0166Z" fill="#FEFEFE"/>
    <path d="M27.0028 43.9148H25.7222V39.656H26.9295L28.8505 41.9071V39.656H30.1312V43.9148H28.9972L27.0028 41.5785V43.9148Z" fill="#FEFEFE"/>
    <path fill-rule="evenodd" clip-rule="evenodd" d="M32.7326 43.9148H30.9583V39.656H32.7593C34.4269 39.656 35.3941 40.5321 35.3941 41.7732C35.3941 43.0022 34.4135 43.9148 32.7326 43.9148ZM32.2524 40.6902V42.8684H32.7793C33.5531 42.8684 34.0667 42.479 34.0667 41.7793C34.0667 41.0979 33.5531 40.6902 32.7793 40.6902H32.2524Z" fill="#FEFEFE"/>
    <path fill-rule="evenodd" clip-rule="evenodd" d="M36.7148 43.9148H35.3541L37.3418 39.6255H38.5892L40.5769 43.9148H39.1895L38.8493 43.1543H37.0483L36.7148 43.9148ZM37.9555 41.0249L37.4285 42.2356H38.4758L37.9555 41.0249Z" fill="#FEFEFE"/>
    <path d="M42.8648 43.9148H41.5708V40.6902H40.17V39.656H44.2656V40.6902H42.8648V43.9148Z" fill="#FEFEFE"/>
    <path d="M46.16 43.9148H44.8593V39.656H46.16V43.9148Z" fill="#FEFEFE"/>
    <path fill-rule="evenodd" clip-rule="evenodd" d="M51.8831 41.7854C51.8831 43.0083 50.8025 44 49.3617 44C47.9209 44 46.8537 43.0205 46.8537 41.7854C46.8537 40.5625 47.9342 39.5708 49.375 39.5708C50.8158 39.5708 51.8831 40.5503 51.8831 41.7854ZM48.181 41.7854C48.181 42.3999 48.668 42.9353 49.375 42.9353C50.0888 42.9353 50.5624 42.4121 50.5624 41.7854C50.5624 41.1709 50.0754 40.6355 49.3617 40.6355C48.6546 40.6355 48.181 41.1587 48.181 41.7854Z" fill="#FEFEFE"/>
    <path d="M53.8375 43.9148H52.5568V39.656H53.7641L55.6852 41.9071V39.656H56.9658V43.9148H55.8319L53.8375 41.5785V43.9148Z" fill="#FEFEFE"/>
</svg>
